<?xml version="1.0" standalone="no"?><!DOCTYPE svg PUBLIC "-//W3C//DTD SVG 1.1//EN" "http://www.w3.org/Graphics/SVG/1.1/DTD/svg11.dtd"><svg t="1635241027149" class="icon" viewBox="0 0 1024 1024" version="1.1" xmlns="http://www.w3.org/2000/svg" p-id="42056" xmlns:xlink="http://www.w3.org/1999/xlink" width="200" height="200"><defs><style type="text/css"></style></defs><path d="M312.266105 53.894737h367.130948a122.772211 122.772211 0 0 1 122.394947 122.394947v305.960421H189.871158V176.289684A122.772211 122.772211 0 0 1 312.212211 53.894737z" fill="#35ABF9" p-id="42057"></path><path d="M312.266105 53.894737h122.341053v305.960421h-122.341053V53.894737z m244.736 0h122.394948v305.960421h-122.341053V53.894737z" fill="#FFFFFF" p-id="42058"></path><path d="M495.831579 1002.442105c153.007158 0 284.564211-94.854737 339.644632-229.483789 18.324211-42.846316 27.486316-88.710737 27.486315-137.701053 0-201.943579-165.187368-367.184842-367.130947-367.184842-201.943579 0-367.184842 165.241263-367.184842 367.184842S293.888 1002.442105 495.831579 1002.442105z" fill="#FCC376" p-id="42059"></path><path d="M495.831579 956.523789a321.212632 321.212632 0 0 1-321.266526-321.212631A321.212632 321.212632 0 0 1 495.831579 313.936842a321.212632 321.212632 0 0 1 321.266526 321.266526A321.212632 321.212632 0 0 1 495.831579 956.523789z m0-611.920842c-159.097263 0-290.708211 131.503158-290.708211 290.654316 0 159.097263 131.610947 290.708211 290.708211 290.708211s290.708211-131.610947 290.70821-290.708211S654.928842 344.602947 495.831579 344.602947z" fill="#E19547" p-id="42060"></path><path d="M391.814737 754.580211c24.468211 18.378105 55.080421 27.540211 85.692631 27.54021 21.396211 0 36.648421-6.090105 48.936421-15.306105 12.234105-9.162105 18.324211-21.396211 18.324211-39.774316 0-18.324211-6.090105-30.558316-21.396211-39.774316-15.306105-9.162105-33.684211-15.306105-61.170526-15.306105H428.463158V613.861053h30.61221c48.936421 0 73.404632-15.306105 73.404632-48.990316 0-30.558316-18.324211-45.864421-58.098526-45.864421-24.522105 0-48.990316 9.162105-73.458527 24.46821V479.232c24.468211-12.288 55.080421-18.378105 88.710737-18.378105 33.684211 0 64.296421 9.162105 85.692632 24.46821 21.450105 15.306105 33.684211 39.774316 33.68421 67.368421 0 48.936421-24.522105 79.494737-73.458526 91.728842 24.468211 3.072 45.918316 12.288 61.224421 27.540211 15.252211 15.306105 24.468211 36.756211 24.468211 58.152421 0 36.702316-12.234105 61.224421-39.774316 82.620632-24.522105 18.324211-61.224421 30.612211-104.016842 30.61221-36.756211 0-67.368421-6.144-91.836632-18.32421V754.526316h6.144z" fill="#E19547" p-id="42061"></path><path d="M376.508632 739.274105c24.468211 18.378105 55.080421 27.540211 85.692631 27.540211 21.396211 0 36.648421-6.090105 48.936421-15.252211 12.234105-9.162105 18.324211-21.450105 18.324211-39.82821 0-18.324211-6.090105-30.558316-21.396211-39.774316-15.306105-9.162105-33.630316-15.252211-61.170526-15.252211h-33.684211v-58.206315h30.612211c48.936421 0 73.404632-15.252211 73.404631-48.936421 0-30.558316-18.324211-45.864421-58.098526-45.864421-24.468211 0-48.990316 9.162105-73.458526 24.46821V463.925895c24.468211-12.234105 55.080421-18.324211 88.764631-18.324211 33.630316 0 64.242526 9.162105 85.692632 24.414316 21.396211 15.306105 33.630316 39.774316 33.630316 67.368421 0 48.936421-24.468211 79.494737-73.458527 91.782737 24.468211 3.018105 45.918316 12.234105 61.224422 27.486316 15.306105 15.306105 24.468211 36.756211 24.46821 58.206315 0 36.648421-12.234105 61.170526-39.774316 82.566737-24.468211 18.324211-61.224421 30.612211-104.016842 30.612211-36.756211 0-67.368421-6.144-91.836631-18.324211v-70.440421h6.144z" fill="#FFFFFF" p-id="42062"></path></svg>