<?xml version="1.0" standalone="no"?><!DOCTYPE svg PUBLIC "-//W3C//DTD SVG 1.1//EN" "http://www.w3.org/Graphics/SVG/1.1/DTD/svg11.dtd"><svg t="1635241012929" class="icon" viewBox="0 0 1024 1024" version="1.1" xmlns="http://www.w3.org/2000/svg" p-id="41792" xmlns:xlink="http://www.w3.org/1999/xlink" width="200" height="200"><defs><style type="text/css"></style></defs><path d="M682.199579 367.400421H309.463579a68.122947 68.122947 0 0 1-69.254737-69.254737V123.634526c0-38.912 33.199158-69.254737 69.254737-69.254737h369.933474c38.858105 0 69.200842 29.857684 69.200842 69.254737v174.511158c2.856421 39.343158-29.857684 69.254737-66.398316 69.254737" fill="#5096F5" p-id="41793"></path><path d="M345.465263 367.400421h93.453474V54.379789H345.465263v313.020632z m210.620632 0h93.399579V54.379789h-93.399579v313.020632z" fill="#FFFFFF" p-id="41794"></path><path d="M495.831579 1002.442105a376.077474 376.077474 0 0 0 376.077474-376.077473A376.077474 376.077474 0 0 0 495.831579 250.233263a376.077474 376.077474 0 0 0-376.077474 376.131369A376.077474 376.077474 0 0 0 495.831579 1002.442105z" fill="#FEE751" p-id="41795"></path><path d="M766.652632 626.364632A269.797053 269.797053 0 0 0 495.831579 355.543579a269.797053 269.797053 0 0 0-270.821053 270.821053A269.797053 269.797053 0 0 0 495.831579 897.131789a269.797053 269.797053 0 0 0 270.821053-270.767157z" fill="#FFDE3A" p-id="41796"></path><path d="M766.652632 626.364632A269.797053 269.797053 0 0 0 495.831579 355.543579a269.797053 269.797053 0 0 0-270.821053 270.821053A269.797053 269.797053 0 0 0 495.831579 897.131789a269.797053 269.797053 0 0 0 270.821053-270.767157z m30.342736 0c0 165.456842-135.653053 301.163789-301.163789 301.163789s-301.163789-135.653053-301.16379-301.163789c0-165.564632 135.653053-301.163789 301.16379-301.16379s301.163789 135.599158 301.163789 301.16379z" fill="#FFBC00" p-id="41797"></path><path d="M548.971789 803.732211H481.118316v-255.191579a230.992842 230.992842 0 0 1-87.255579 51.2V538.677895c17.569684-5.712842 36.971789-16.599579 57.397895-32.768 20.372211-16.114526 35.085474-35.031579 42.684631-56.42779h54.972632v354.304z" fill="#E57200" p-id="41798"></path></svg>