<?xml version="1.0" standalone="no"?><!DOCTYPE svg PUBLIC "-//W3C//DTD SVG 1.1//EN" "http://www.w3.org/Graphics/SVG/1.1/DTD/svg11.dtd"><svg t="1635241022739" class="icon" viewBox="0 0 1024 1024" version="1.1" xmlns="http://www.w3.org/2000/svg" p-id="41924" xmlns:xlink="http://www.w3.org/1999/xlink" width="200" height="200"><defs><style type="text/css"></style></defs><path d="M312.266105 53.894737h367.130948a122.772211 122.772211 0 0 1 122.394947 122.394947v305.960421H189.871158V176.289684A122.772211 122.772211 0 0 1 312.212211 53.894737z" fill="#35ABF9" p-id="41925"></path><path d="M312.266105 53.894737h122.341053v305.960421h-122.341053V53.894737z m244.736 0h122.394948v305.960421h-122.341053V53.894737z" fill="#FFFFFF" p-id="41926"></path><path d="M495.831579 1002.442105c153.007158 0 284.564211-94.854737 339.644632-229.483789 18.324211-42.846316 27.486316-88.710737 27.486315-137.701053 0-201.943579-165.187368-367.184842-367.130947-367.184842-201.943579 0-367.184842 165.241263-367.184842 367.184842S293.888 1002.442105 495.831579 1002.442105z" fill="#E4E4E4" p-id="41927"></path><path d="M495.831579 956.523789a321.212632 321.212632 0 0 1-321.266526-321.212631A321.212632 321.212632 0 0 1 495.831579 313.936842a321.212632 321.212632 0 0 1 321.266526 321.266526A321.212632 321.212632 0 0 1 495.831579 956.523789z m0-611.920842c-159.097263 0-290.708211 131.503158-290.708211 290.654316 0 159.097263 131.610947 290.708211 290.708211 290.708211s290.708211-131.610947 290.70821-290.708211S654.928842 344.602947 495.831579 344.602947z" fill="#C8C5BF" p-id="41928"></path><path d="M630.460632 840.272842H388.742737v-61.170526L495.831579 678.103579c21.396211-21.396211 36.702316-39.774316 45.918316-55.080421 9.162105-15.306105 12.234105-30.612211 12.234105-45.918316 0-36.648421-18.324211-52.008421-58.152421-52.008421-30.612211 0-61.170526 12.234105-91.782737 36.756211v-67.368421c30.612211-21.396211 67.314526-30.558316 107.088842-30.558316 36.702316 0 64.242526 9.162105 85.692632 27.486316 21.396211 18.378105 30.558316 42.900211 30.558316 76.530526 0 42.846316-27.486316 88.764632-79.548632 137.701052l-76.530526 70.386527h153.061052v64.242526h6.090106z" fill="#C8C5BF" opacity=".5" p-id="41929"></path><path d="M615.154526 824.966737H373.490526v-61.170526l107.088842-100.998737c21.450105-21.396211 36.702316-39.774316 45.918316-55.080421 9.162105-15.306105 12.234105-30.612211 12.234105-45.864421 0-36.756211-18.324211-52.062316-58.152421-52.062316-30.612211 0-61.170526 12.234105-91.782736 36.75621V479.124211c30.612211-21.396211 67.314526-30.558316 107.088842-30.558316 36.702316 0 64.242526 9.162105 85.692631 27.486316 21.396211 18.432 30.558316 42.900211 30.558316 76.530526 0 42.846316-27.486316 88.764632-79.548632 137.701052l-70.386526 67.368422h153.061053v67.260631z" fill="#FFFFFF" p-id="41930"></path></svg>