<?xml version="1.0" standalone="no"?><!DOCTYPE svg PUBLIC "-//W3C//DTD SVG 1.1//EN" "http://www.w3.org/Graphics/SVG/1.1/DTD/svg11.dtd"><svg class="icon" width="200px" height="200.00px" viewBox="0 0 1024 1024" version="1.1" xmlns="http://www.w3.org/2000/svg"><path fill="#4092BA" d="M241.6 224a17.6 17.6 0 0 1 17.6 17.6V752h510.4c9.696 0 17.6 7.936 17.6 17.6 0 9.696-7.904 17.6-17.6 17.6H241.6a17.6 17.6 0 0 1-17.6-17.6V241.6A17.6 17.6 0 0 1 241.6 224z m321.024 212.288v245.024c0 19.648-12.672 35.488-28.512 35.488-15.744 0-28.512-15.872-28.512-35.488v-245.024h57.024z m-202.56 68.736c15.712 0 28.48 15.936 28.48 35.52v140.8c0 19.584-12.768 35.456-28.48 35.456-15.776 0-28.512-15.872-28.512-35.488v-140.8c0-19.552 12.736-35.488 28.48-35.488z m376.64-68.736v244.992c0 19.648-12.768 35.456-28.512 35.456-15.776 0-28.512-15.84-28.512-35.488v-244.96h57.024z m-227.744-35.488l-0.48 1.056c-1.92 4.992-2.88 10.272-2.88 15.616v18.816H312.48a17.92 17.92 0 0 1-18.08-17.728 17.92 17.92 0 0 1 18.08-17.76h196.48z m170.72 0v35.52h-117.056v-18.88a42.24 42.24 0 0 0-2.88-15.584l-0.448-1.056h120.384z m89.472 0a17.92 17.92 0 0 1 18.048 17.76 17.952 17.952 0 0 1-18.08 17.728h-32.416v-35.488h32.448zM708.16 294.4c15.744 0 28.48 15.84 28.48 35.488v70.912H679.68V329.92c0-18.272 11.008-33.184 25.184-35.232l3.328-0.256z m-174.08 87.584c10.144 0 19.008 6.592 24.128 16.48l1.056 2.336h-50.336l1.088-2.336c4.48-8.8 12.032-14.976 20.768-16.192l3.296-0.32z"  /></svg>