<?xml version="1.0" standalone="no"?><!DOCTYPE svg PUBLIC "-//W3C//DTD SVG 1.1//EN" "http://www.w3.org/Graphics/SVG/1.1/DTD/svg11.dtd"><svg class="icon" width="200px" height="200.00px" viewBox="0 0 1024 1024" version="1.1" xmlns="http://www.w3.org/2000/svg"><path d="M528.128 791.136c-145.248 0-266.496-30.144-296.576-70.4-4.672 6.272-7.296 12.768-7.296 19.456 0 49.6 136.032 89.76 303.872 89.76S832 789.76 832 740.192c0-6.72-2.624-13.184-7.296-19.424-30.08 40.224-151.328 70.4-296.576 70.4z m0-343.392c167.84 0 303.872-49.6 303.872-110.72 0-61.152-136.032-110.72-303.872-110.72s-303.872 49.568-303.872 110.72c0 61.12 136.032 110.72 303.872 110.72z m-134.176 87.136v-38.816c-81.44-11.872-142.304-34.176-162.4-61.088-4.672 6.272-7.296 12.768-7.296 19.424 0 35.36 69.248 65.824 169.696 80.48z m268.352-38.816v38.816C762.752 520.224 832 489.76 832 454.4c0-6.656-2.624-13.12-7.296-19.424-20.096 26.88-80.96 49.216-162.4 61.12z m0 96.192v38.784C762.752 616.384 832 585.92 832 550.56c0-6.656-2.624-13.12-7.296-19.392-20.096 26.88-80.96 49.184-162.4 61.088zM393.92 631.04v-38.784c-81.44-11.904-142.304-34.24-162.4-61.12-4.672 6.272-7.296 12.768-7.296 19.424 0 35.36 69.248 65.824 169.696 80.48z" fill="#2988CC" /><path d="M393.952 726.624v-38.816c-81.44-11.904-142.304-34.208-162.4-61.088-4.672 6.272-7.296 12.736-7.296 19.424 0 35.328 69.248 65.824 169.696 80.48z m268.352-38.816v38.816c100.448-14.656 169.696-45.12 169.696-80.48 0-6.688-2.624-13.152-7.296-19.424-20.096 26.88-80.96 49.184-162.4 61.088z m-159.392 32.544V679.04h-49.344c-10.656 0-16-4.896-16-14.688 0.896-8 6.208-12.864 16-14.656h49.344v-22.656h-49.344c-10.656 0-16-4.896-16-14.688 0.896-8 6.208-12.864 16-14.656h28l-42.656-60c-4.48-3.52-6.24-8.448-5.344-14.656 0.896-15.104 9.344-23.552 25.344-25.344 8 0.896 14.656 4.48 20 10.656l49.344 70.688 49.312-70.688c4.448-6.208 11.104-9.76 20-10.656 15.104 1.792 23.552 10.24 25.344 25.344 0 6.208-1.792 11.104-5.344 14.656l-42.656 60h28c8.864 1.792 14.208 6.656 16 14.656-0.896 9.792-6.24 14.688-16 14.688h-49.344v22.656h49.344c8.864 1.792 14.208 6.656 16 14.656-0.896 9.792-6.24 14.688-16 14.688h-49.344v41.312c-0.896 15.136-9.312 22.688-25.312 22.688-16.896 0-25.344-7.552-25.344-22.688z" fill="#2988CC" /><path d="M32 820.384c0-18.016 3.008-35.072 8.992-51.168 6.016-16.096 14.304-30.4 24.96-42.816a132.16 132.16 0 0 1 37.376-30.4 125.184 125.184 0 0 1 46.08-14.528 20.576 20.576 0 0 1 6.656-1.088h50.176v-28.416c0.224-4.736 1.92-8.288 5.056-10.656 3.168-2.368 7.264-1.536 12.32 2.496 1.472 1.184 4.288 3.616 8.512 7.264 4.224 3.68 8.896 7.84 14.048 12.448 5.152 4.608 10.368 9.28 15.616 14.048 5.28 4.736 9.792 8.864 13.568 12.416a89.6 89.6 0 0 1 8.864 9.248 14.24 14.24 0 0 1 3.776 8.864c0 3.328-1.12 6.112-3.328 8.352-2.208 2.24-4.864 4.8-8.032 7.648l-15.776 13.504-15.648 12.8c-4.928 4-9.28 7.52-13.088 10.464a78.016 78.016 0 0 1-8.192 5.856 28.48 28.48 0 0 1-8.064 4.096c-2.24 0.576-4 0.544-5.376-0.192a7.04 7.04 0 0 1-3.136-3.52 12.992 12.992 0 0 1-1.12-5.344v-28.416H154.464a77.408 77.408 0 0 0-28.704 9.056 81.92 81.92 0 0 0-23.2 19.008 89.088 89.088 0 0 0-21.312 58.624c0 12.064 2.112 23.36 6.304 33.92a84.128 84.128 0 0 0 43.232 46.176c9.92 4.64 20.416 6.944 31.584 6.944l48.928-0.352c3.36 0 6.784 0.704 10.24 2.112a29.824 29.824 0 0 1 15.616 14.048 22.496 22.496 0 0 1 0 20.8 26.752 26.752 0 0 1-6.752 8.512 35.968 35.968 0 0 1-9.472 5.664 26.944 26.944 0 0 1-10.24 2.144H153.152a13.056 13.056 0 0 1-2.816-0.352 120.32 120.32 0 0 1-46.56-14.4 133.984 133.984 0 0 1-37.568-30.56A144.16 144.16 0 0 1 32 820.352z" fill="#FF9A36" /></svg>