<?xml version="1.0" standalone="no"?><!DOCTYPE svg PUBLIC "-//W3C//DTD SVG 1.1//EN" "http://www.w3.org/Graphics/SVG/1.1/DTD/svg11.dtd"><svg class="icon" width="200px" height="200.00px" viewBox="0 0 1024 1024" version="1.1" xmlns="http://www.w3.org/2000/svg"><path fill="#4092BA" d="M511.872 467.104a70.368 70.368 0 1 0 70.368 70.368 70.432 70.432 0 0 0-70.368-70.4z m0 112.544a42.208 42.208 0 1 1 42.208-42.176c0 23.296-18.88 42.176-42.208 42.176z"  /><path fill="#4092BA" d="M729.536 533.408c37.76-51.904 47.04-100.384 26.08-136.672-12.48-21.408-40.64-47.264-104.096-47.264a270.912 270.912 0 0 0-32.352 2.272C593.792 292.512 555.872 256 511.872 256c-44 0-81.92 36.48-107.36 95.744a269.76 269.76 0 0 0-32.32-2.272c-63.488 0-91.648 25.728-104.064 47.264-20.96 36.288-11.68 84.768 26.016 136.64 0.992 1.376 2.144 2.72 3.2 4.096-38.624 51.616-51.2 102.656-29.216 140.704 12.416 21.408 40.576 47.264 104.096 47.264a269.76 269.76 0 0 0 32.288-2.24c25.44 59.2 63.36 96 107.36 96s81.92-36.48 107.296-95.744c10.72 1.408 21.536 2.176 32.352 2.272 63.456 0 91.616-25.664 104.096-47.264 21.952-38.08 9.344-89.12-29.216-140.736 1.28-1.6 2.208-2.976 3.136-4.32zM651.52 377.6c37.952 0 66.816 10.816 79.712 33.152 15.36 26.496 5.28 64.16-23.168 104.16a445.824 445.824 0 0 0-60.672-55.68 453.92 453.92 0 0 0-17.888-80.512c7.616-0.704 14.976-1.12 22.016-1.12z m-83.328 257.344a578.88 578.88 0 0 1-56.32 28.512 570.944 570.944 0 0 1-56.32-28.48 546.08 546.08 0 0 1-52.608-34.656 545.536 545.536 0 0 1 0-125.76 540.384 540.384 0 0 1 108.928-62.976 569.28 569.28 0 0 1 108.864 62.944c2.4 20.896 3.616 41.888 3.648 62.912-0.032 20.992-1.28 41.984-3.648 62.848-16.832 12.544-34.4 24.096-52.544 34.656z m46.848 3.84c-3.52 17.984-8.32 35.68-14.272 52.992a396.8 396.8 0 0 1-52.736-14.272c11.392-5.632 22.72-11.52 33.984-18.016 11.264-6.496 22.4-13.632 33.024-20.672z m-139.52 38.592c-17.248 5.952-34.88 10.688-52.768 14.24a389.184 389.184 0 0 1-14.24-52.96c10.624 7.136 21.376 14.272 32.768 20.544 11.424 6.272 22.624 12.544 34.24 18.176z m-103.04-101.312a398.176 398.176 0 0 1-38.848-38.624c12.096-13.76 25.056-26.656 38.88-38.656-0.8 12.608-1.376 25.44-1.376 38.656 0 13.184 0.576 26.016 1.376 38.624z m36.224-140c3.52-17.984 8.32-35.68 14.272-52.992 17.888 3.552 35.52 8.32 52.768 14.272a559.2 559.2 0 0 0-67.04 38.72z m139.52-38.592a396.8 396.8 0 0 1 52.768-14.24c5.952 17.28 10.72 35.008 14.24 52.96-10.56-7.136-21.376-14.272-32.768-20.48-11.424-6.176-22.816-12.608-34.24-18.24z m103.04 101.312c13.792 12 26.784 24.896 38.848 38.656-12.064 13.76-25.056 26.656-38.848 38.624 0.768-12.608 1.344-25.44 1.344-38.624 0-13.216-0.576-26.048-1.344-38.656z m-139.392-214.304c30.656 0 58.464 27.68 78.4 72.448-26.816 5.792-53.056 14.016-78.4 24.576a452.48 452.48 0 0 0-78.4-24.576c19.936-45.12 47.744-72.448 78.4-72.448zM292.8 410.784c12.896-22.336 41.696-33.152 79.68-33.152 7.136 0 14.272 0.416 22.048 1.12a447.68 447.68 0 0 0-17.92 80.512 450.944 450.944 0 0 0-60.992 55.68c-28.48-39.872-38.432-77.664-22.816-104.16z m79.424 286.496c-38.016 0-66.816-10.816-79.712-33.152-15.328-26.56-5.28-64.16 23.296-104.352 18.432 20.48 38.72 39.2 60.544 55.968 3.488 27.296 9.472 54.208 17.92 80.416a237.696 237.696 0 0 1-22.08 1.12z m139.648 93.408c-30.656 0-58.464-27.68-78.4-72.352a459.104 459.104 0 0 0 78.4-24.672c25.344 10.56 51.584 18.784 78.4 24.64-19.936 44.8-47.968 72.384-78.4 72.384z m219.36-126.56c-12.896 22.336-41.76 33.152-79.68 33.152-7.136 0-14.272-0.416-22.048-1.12 8.384-26.24 14.4-53.12 17.92-80.416a451.52 451.52 0 0 0 60.48-56c28.608 39.936 38.656 77.792 23.36 104.384z"  /></svg>