<?xml version="1.0" standalone="no"?><!DOCTYPE svg PUBLIC "-//W3C//DTD SVG 1.1//EN" "http://www.w3.org/Graphics/SVG/1.1/DTD/svg11.dtd"><svg class="icon" width="200px" height="200.00px" viewBox="0 0 1024 1024" version="1.1" xmlns="http://www.w3.org/2000/svg"><path fill="#4092BA" d="M431.584 516.064h-74.56v-24.864h74.56v24.864z m124.48-24.864h-74.624v24.864h74.592v-24.864z m-248.896 0H232.544v24.864H307.2v-24.864z m373.312 0h-74.592v24.864h74.592v-24.864z m124.448 0h-74.592v24.864h74.592v-24.864zM234.176 344.672l22.144 32.256s55.936-47.008 117.312-34.976c59.072 16.32 103.744 99.488 109.376 124.352 0-0.384 41.6 0 41.792 0-1.952-26.816-51.68-136.384-137.92-159.296-77.696-23.296-152.704 37.664-152.704 37.664z m582.784 317.984l-22.144-32.256s-55.936 47.04-117.344 34.976c-59.04-16.32-103.712-99.456-109.376-124.352 0 0.416-41.568 0-41.76 0 1.92 26.816 51.68 136.384 137.92 159.328 77.696 23.296 152.704-37.696 152.704-37.696z"  /></svg>