<?xml version="1.0" standalone="no"?><!DOCTYPE svg PUBLIC "-//W3C//DTD SVG 1.1//EN" "http://www.w3.org/Graphics/SVG/1.1/DTD/svg11.dtd"><svg class="icon" width="200px" height="200.00px" viewBox="0 0 1024 1024" version="1.1" xmlns="http://www.w3.org/2000/svg"><path fill="#4092BA" d="M315.392 420.512v244.064c0 18.784 15.04 33.792 35.68 33.792h311.616c9.408 0 18.784-3.744 24.416-9.376 5.632-5.632 9.376-15.04 9.376-24.416v-244.064c0-18.752-15.008-33.792-35.648-33.792h-309.76c-9.408 0-18.784 3.776-24.416 9.408-7.52 5.632-11.264 15.008-11.264 24.384z m71.36-69.44v-16.896c0-30.048 22.496-52.576 50.656-52.576h138.944c27.84 0.32 50.368 22.816 50.688 50.688v16.896h33.792c37.536 0 69.44 30.048 69.44 69.44v244.064a68.16 68.16 0 0 1-20.64 48.832 68.16 68.16 0 0 1-48.8 20.64h-309.76A69.312 69.312 0 0 1 281.6 662.72v-244.064c0-18.784 7.52-35.68 20.64-48.832a68.16 68.16 0 0 1 48.832-20.64h35.648v1.888z m33.76 0h172.736v-16.896c0-3.776-1.888-9.408-5.632-11.264-3.776-3.776-7.52-5.632-11.264-5.632h-138.944a16.832 16.832 0 0 0-16.896 16.896v16.896z m0 155.808c0-28.16 22.528-52.576 52.576-52.576h69.44c28.16 0 52.576 22.528 52.576 52.576a52.48 52.48 0 0 1-52.544 52.576h-69.472c-13.12 0-26.272-5.632-37.536-15.04-9.408-11.264-15.04-24.384-15.04-37.536z m33.792 0c0 9.376 7.52 16.896 16.896 16.896h69.472a16.832 16.832 0 0 0 16.896-16.896 20.288 20.288 0 0 0-5.632-13.12 17.056 17.056 0 0 0-13.12-5.664h-69.472c-7.52 1.888-15.04 9.408-15.04 18.784zM281.6 489.984h172.704v33.792H281.6v-33.792z m277.856 0h172.704v33.792h-172.704v-33.792z"  /></svg>