<?xml version="1.0" standalone="no"?><!DOCTYPE svg PUBLIC "-//W3C//DTD SVG 1.1//EN" "http://www.w3.org/Graphics/SVG/1.1/DTD/svg11.dtd"><svg class="icon" width="200px" height="200.00px" viewBox="0 0 1024 1024" version="1.1" xmlns="http://www.w3.org/2000/svg"><path d="M403.68 618.88h177.408c13.312 0 22.176-8.864 22.176-22.176 0-13.312-8.864-22.176-22.176-22.176h-177.408c-13.312 0-22.176 8.864-22.176 22.176 0 13.312 8.864 22.176 22.176 22.176z m266.112 0h44.352c13.312 0 22.176-8.864 22.176-22.176 0-13.312-8.864-22.176-22.176-22.176h-44.352c-13.312 0-22.176 8.864-22.176 22.176 0 13.312 8.864 22.176 22.176 22.176z m110.88-177.408h-443.52v-22.176c0-13.312 8.864-22.176 22.176-22.176h399.168c13.312 0 22.176 8.864 22.176 22.176v22.176z m0 288.288c0 13.312-8.864 22.176-22.176 22.176H359.328c-13.312 0-22.176-8.864-22.176-22.176v-243.936h443.52v243.936zM292.8 419.296v243.936h-22.176c-13.312 0-22.176-8.864-22.176-22.176v-310.464c0-13.312 8.864-22.176 22.176-22.176h399.168c13.312 0 22.176 8.864 22.176 22.176v22.176H359.328c-35.488 0-66.528 31.04-66.528 66.528z m465.696-66.528h-22.176v-22.176c0-35.488-31.04-66.528-66.528-66.528H270.624c-35.488 0-66.528 31.04-66.528 66.528v310.464c0 35.488 31.04 66.528 66.528 66.528h22.176v22.176c0 35.488 31.04 66.528 66.528 66.528h399.168c35.488 0 66.528-31.04 66.528-66.528v-310.464c0-35.488-31.04-66.528-66.528-66.528z" fill="#2988CC" /><path d="M32 820.384c0-18.016 3.008-35.072 8.992-51.168 6.016-16.096 14.304-30.4 24.96-42.816a132.16 132.16 0 0 1 37.376-30.4 125.184 125.184 0 0 1 46.08-14.528 20.576 20.576 0 0 1 6.656-1.088h50.176v-28.416c0.224-4.736 1.92-8.288 5.056-10.656 3.168-2.368 7.264-1.536 12.32 2.496 1.472 1.184 4.288 3.616 8.512 7.264 4.224 3.68 8.896 7.84 14.048 12.448 5.152 4.608 10.368 9.28 15.616 14.048 5.28 4.736 9.792 8.864 13.568 12.416a89.6 89.6 0 0 1 8.864 9.248 14.24 14.24 0 0 1 3.776 8.864c0 3.328-1.12 6.112-3.328 8.352-2.208 2.24-4.864 4.8-8.032 7.648l-15.776 13.504-15.648 12.8c-4.928 4-9.28 7.52-13.088 10.464a78.016 78.016 0 0 1-8.192 5.856 28.48 28.48 0 0 1-8.064 4.096c-2.24 0.576-4 0.544-5.376-0.192a7.04 7.04 0 0 1-3.136-3.52 12.992 12.992 0 0 1-1.12-5.344v-28.416H154.464a77.408 77.408 0 0 0-28.704 9.056 81.92 81.92 0 0 0-23.2 19.008 89.088 89.088 0 0 0-21.312 58.624c0 12.064 2.112 23.36 6.304 33.92a84.128 84.128 0 0 0 43.232 46.176c9.92 4.64 20.416 6.944 31.584 6.944l48.928-0.352c3.36 0 6.784 0.704 10.24 2.112a29.824 29.824 0 0 1 15.616 14.048 22.496 22.496 0 0 1 0 20.8 26.752 26.752 0 0 1-6.752 8.512 35.968 35.968 0 0 1-9.472 5.664 26.944 26.944 0 0 1-10.24 2.144H153.152a13.056 13.056 0 0 1-2.816-0.352 120.32 120.32 0 0 1-46.56-14.4 133.984 133.984 0 0 1-37.568-30.56A144.16 144.16 0 0 1 32 820.352z" fill="#FF9A36" /></svg>