<?xml version="1.0" standalone="no"?><!DOCTYPE svg PUBLIC "-//W3C//DTD SVG 1.1//EN" "http://www.w3.org/Graphics/SVG/1.1/DTD/svg11.dtd"><svg class="icon" width="200px" height="200.00px" viewBox="0 0 1024 1024" version="1.1" xmlns="http://www.w3.org/2000/svg"><path fill="#4092BA" d="M505.6 787.2c-155.168 0-281.6-126.432-281.6-281.6C224 350.176 350.432 224 505.6 224s281.6 126.432 281.6 281.6-126.176 281.6-281.6 281.6z m0-539.616c-142.336 0-258.016 115.68-258.016 258.016s115.68 258.016 258.016 258.016 258.016-115.68 258.016-258.016-115.68-258.016-258.016-258.016z m-153.984 229.76h40.256v-80.48h-44.8v-24.128h114.816v24.128h-44.128v80.48h39.232v24.448h-39.232v78.4c16.32-4.896 31.968-10.304 46.912-16.128v24.16a869.568 869.568 0 0 1-113.728 33.6l-5.952-24.16c13.76-2.304 29.376-5.728 46.912-10.176v-85.632h-40.32v-24.512z m124.224-114.4h182.656v24.448h-68.896c-4.48 14.272-8.224 25.408-11.232 33.6v246.368h-25.92v-190.72a387.04 387.04 0 0 1-73.152 92.416l-15.36-20.288a351.552 351.552 0 0 0 100.736-161.28H475.84v-24.544z m124.96 95.84c27.52 34.56 49.344 65.792 65.44 93.76l-20.992 14.72c-15.904-29.376-37.248-61.504-64-96.256l19.552-12.224z"  /></svg>