<?xml version="1.0" standalone="no"?><!DOCTYPE svg PUBLIC "-//W3C//DTD SVG 1.1//EN" "http://www.w3.org/Graphics/SVG/1.1/DTD/svg11.dtd"><svg class="icon" width="200px" height="200.00px" viewBox="0 0 1024 1024" version="1.1" xmlns="http://www.w3.org/2000/svg"><path fill="#4092BA" d="M365.12 740.288c-54.976-15.264-90.24-38.976-90.24-65.344 0-22.4 25.184-42.688 65.792-57.664a492.48 492.48 0 0 0 74.112 16.896 227.648 227.648 0 0 1 44.48-28.16c-105.856-8.608-184.416-41.632-184.416-81.216 0-22.4 25.216-42.56 65.824-57.504 55.584 16.64 113.344 24.768 171.328 24.16a576.832 576.832 0 0 0 171.328-24.16c40.64 14.976 65.824 35.136 65.824 57.504 0 18.816-17.92 36.16-48.032 50.08a420.16 420.16 0 0 1 50.08 11.264c26.688-17.76 42.4-38.816 42.4-61.344 0-28.608-24.896-54.688-66.112-75.008 41.216-20.288 66.112-46.528 66.112-74.976 0-64.48-126.112-116.8-281.6-116.8-155.488 0-281.6 52.32-281.6 116.8 0 28.48 24.896 54.688 66.112 74.976-41.216 20.32-66.112 46.4-66.112 75.008 0 28.608 24.896 54.72 66.112 75.008-41.216 20.288-66.112 46.528-66.112 75.136 0 44.48 60.608 83.424 149.696 103.744a103.744 103.744 0 0 1-14.976-38.4zM274.88 374.816c0-46.08 106.112-83.456 237.12-83.456s237.12 37.344 237.12 83.456c0 46.08-106.112 83.296-237.12 83.296s-237.12-37.056-237.12-83.296z"  /><path fill="#4092BA" d="M595.456 788.032a114.56 114.56 0 0 1-51.008 9.6 85.376 85.376 0 0 1-64.32-24.288 88.928 88.928 0 0 1-23.84-64.64 95.296 95.296 0 0 1 26.08-69.472 91.904 91.904 0 0 1 68.608-26.976 122.56 122.56 0 0 1 44.48 6.816v36.896a79.744 79.744 0 0 0-41.216-10.688 55.424 55.424 0 0 0-42.24 16.768c-10.88 12.16-16.512 28.16-15.68 44.48-0.8 15.552 4.512 30.784 14.784 42.528 10.496 11.008 25.28 16.928 40.48 16.128a84.48 84.48 0 0 0 43.552-11.52l0.32 34.368zM764.256 716.576l14.528-13.92-15.264-14.816-61.664-59.296-15.424 14.816 54.56 52.48h-139.904v20.896h132.192l-46.848 45.056 15.424 14.816 61.664-59.136 0.576-0.736h0.16v-0.16z"  /></svg>