<?xml version="1.0" standalone="no"?><!DOCTYPE svg PUBLIC "-//W3C//DTD SVG 1.1//EN" "http://www.w3.org/Graphics/SVG/1.1/DTD/svg11.dtd"><svg class="icon" width="200px" height="200.00px" viewBox="0 0 1024 1024" version="1.1" xmlns="http://www.w3.org/2000/svg"><path fill="#4092BA" d="M808.96 660a42.24 42.24 0 0 1-42.24 42.24H259.84a42.24 42.24 0 0 1-42.24-42.24v-306.24c0-23.328 18.944-42.24 42.24-42.24h506.88c23.36 0 42.24 18.912 42.24 42.24v306.24z m-319.36-5.28v-295.68H265.152v295.68H489.6z m-45.408-131.904l-0.288 1.344c-0.32 0.768-1.024 1.28-1.824 1.28H314.304l-1.056-0.352a2.848 2.848 0 0 1-1.056-2.272v-31.68l0.32-1.312a2.048 2.048 0 0 1 1.888-1.312h127.68l1.056 0.384c0.64 0.416 1.056 1.28 1.056 2.24v31.68z m317.28 131.904v-295.68h-227.2v295.68h227.232-0.032z m-46.496-131.904l-0.32 1.344c-0.32 0.768-0.992 1.28-1.792 1.28h-45.44v45.44l-0.352 1.056a2.816 2.816 0 0 1-2.24 1.056h-31.68l-1.344-0.32a2.048 2.048 0 0 1-1.312-1.888v-45.312h-45.44l-1.024-0.384a2.848 2.848 0 0 1-1.056-2.272v-31.68l0.288-1.312a2.048 2.048 0 0 1 1.92-1.312h45.312v-45.44l0.352-1.024a2.816 2.816 0 0 1 2.24-1.056h31.68l1.376 0.288c0.8 0.32 1.28 1.024 1.28 1.824v45.408h45.44l1.056 0.384c0.64 0.416 1.056 1.28 1.056 2.24v31.68z"  /></svg>