<?xml version="1.0" standalone="no"?><!DOCTYPE svg PUBLIC "-//W3C//DTD SVG 1.1//EN" "http://www.w3.org/Graphics/SVG/1.1/DTD/svg11.dtd"><svg class="icon" width="200px" height="200.00px" viewBox="0 0 1024 1024" version="1.1" xmlns="http://www.w3.org/2000/svg"><path fill="#4092BA" d="M614.4 398.08l112.256-1.664a10.048 10.048 0 0 1 10.176 10.016v145.6c0 5.504-4.512 10.016-10.048 10.016h-28.736a10.048 10.048 0 0 1-10.016-10.048v-94.88a10.048 10.048 0 0 0-10.016-10.048h-240.352a10.048 10.048 0 0 0-10.048 10.048v245.664c0 5.504 4.512 10.016 10.048 10.016h106.752c5.504 0 10.016 4.48 10.016 10.016v28.064c0 5.536-4.48 10.048-10.016 10.048h-162.272a10.048 10.048 0 0 1-10.048-10.048V638.4a10.048 10.048 0 0 0-10.016-10.048H249.472a10.048 10.048 0 0 1-10.016-10.016V273.696c0-5.568 4.48-10.08 10.08-10.016l344.672 1.888c5.504 0 9.952 4.48 9.952 10.016v112.48a10.048 10.048 0 0 0 10.24 10.016z m-59.04-1.824v-72.48a10.048 10.048 0 0 0-10.016-10.016H300.96a10.048 10.048 0 0 0-10.016 10.016v242.304c0 5.504 4.48 10.016 10.016 10.016h61.056c5.504 0 10.016-4.48 10.016-10.016v-159.776c0-5.536 4.512-10.048 10.048-10.048h173.28z m240.832 250.912V599.04c0-9.152 11.168-13.504 17.44-6.784l80.32 86.944c5.952 6.4 1.44 16.832-7.296 16.832h-255.84a10.048 10.048 0 0 1-10.016-10.016v-28.8c0-5.536 4.48-10.048 10.016-10.048h165.376z"  /></svg>