<?xml version="1.0" standalone="no"?><!DOCTYPE svg PUBLIC "-//W3C//DTD SVG 1.1//EN" "http://www.w3.org/Graphics/SVG/1.1/DTD/svg11.dtd"><svg class="icon" width="200px" height="200.00px" viewBox="0 0 1024 1024" version="1.1" xmlns="http://www.w3.org/2000/svg"><path fill="#4092BA" d="M603.424 438.304h-88.512v94.976h88.512v-32.384h128.736v102.976h-128.736v-32h-88.512v97.6h88.512v-33.056h128.736v102.976h-128.736v-31.264h-127.104V571.84h-65.984v32H281.6v-102.976h128.736v32.384h65.984V399.68h127.104v-32.256h128.736V470.4h-128.736v-32.096z m-283.2 126.944h51.488v-25.728h-51.52v25.728z m321.824 0h51.52v-25.728h-51.52v25.728z m0 135.52h51.52v-25.728h-51.52v25.728z m0-268.96h51.52v-25.76h-51.52v25.76z"  /></svg>