<?xml version="1.0" encoding="UTF-8"?>
<svg width="32px" height="32px" viewBox="0 0 32 32" version="1.1" xmlns="http://www.w3.org/2000/svg" xmlns:xlink="http://www.w3.org/1999/xlink">
    <title>编组 23</title>
    <g id="页面-1" stroke="none" stroke-width="1" fill="none" fill-rule="evenodd">
        <g id="工作台首页-数据开发-图标组件" transform="translate(-299.000000, -410.000000)" fill="#2988CC" fill-rule="nonzero">
            <g id="编组-23备份" transform="translate(235.000000, -67.000000)">
                <g id="yansheng" transform="translate(64.000000, 477.000000)">
                    <g id="数据分发" transform="translate(7.000000, 7.000000)">
                        <path d="M12.4718918,11.5052657 L14.1521438,13.1195176 L14.1521439,13.1195175 C15.377743,12.4312476 16.9292389,12.8668395 17.6175132,14.0924386 C18.3057831,15.3180377 17.8701912,16.8695336 16.6445921,17.5578079 C15.418993,18.2460778 13.8674971,17.8104859 13.1792228,16.5848868 C12.7101926,15.7496872 12.7498206,14.7218757 13.2817677,13.9252685 L11.6510158,12.3577667 L11.6510158,12.3577667 C10.1214232,13.5523337 7.97284352,13.544378 6.45213472,12.3385166 L4.89563291,13.9403935 L4.89563292,13.9403935 C5.66848909,15.115399 5.34248266,16.6944573 4.16747719,17.4673156 C2.99247172,18.2401718 1.41341343,17.9141653 0.640555114,16.7391599 C-0.132301059,15.5641544 0.193705375,13.9850961 1.36871084,13.2122378 C2.17002525,12.685176 3.19951473,12.6530569 4.03213191,13.1291428 L5.63675878,11.4791409 L5.63675843,11.4791404 C4.56406382,9.96694154 4.60762344,7.93081984 5.7440092,6.46588454 L4.1063823,4.91625774 L4.1063824,4.91625767 C2.9101525,5.65439505 1.34204911,5.2830372 0.603909579,4.08680944 C-0.134227803,2.89057953 0.237130051,1.32247614 1.43335781,0.584336613 C2.62958772,-0.15380077 4.1976911,0.217557084 4.93583064,1.41378484 C5.43901462,2.22924673 5.44154548,3.25821199 4.94238275,4.07613169 L6.59238467,5.64088351 L6.59238423,5.64088383 C8.0693508,4.56968024 10.0684098,4.57245603 11.54239,5.6477582 L13.1992669,4.12700643 L13.1992669,4.12700644 C12.4420965,2.94183241 12.7890631,1.36724932 13.9742372,0.610074614 C15.1594112,-0.147095798 16.7339943,0.199870817 17.491169,1.38504485 C18.2483394,2.57021889 17.9013728,4.14480197 16.7161988,4.90197668 C15.9093521,5.41744544 14.8815556,5.43677496 14.0558929,4.95200697 L12.390766,6.48100875 L12.3907662,6.48100897 C13.5272243,7.95478509 13.5596658,10.0003256 12.470516,11.5093898 L12.4718918,11.5052657 Z M2.76850555,4.11050711 L2.76850549,4.11050711 C3.5203048,4.11050711 4.12975707,3.50105484 4.12975707,2.74925553 C4.12975707,1.99745621 3.5203048,1.38800394 2.76850549,1.38800394 L2.76850543,1.38800394 C2.01670612,1.38800394 1.40725385,1.99745621 1.40725385,2.74925553 C1.40725385,3.50105484 2.01670612,4.11050711 2.76850543,4.11050711 L2.76850555,4.11050711 Z M9.06463788,12.0635164 L9.06463774,12.0635164 C10.7353012,12.0635164 12.0896413,10.7091763 12.0896413,9.03851284 C12.0896413,7.36784938 10.7353012,6.01350932 9.06463774,6.01350932 C7.39397428,6.01350932 6.03963422,7.36784938 6.03963422,9.03851284 L6.03963422,9.0385127 C6.03963422,10.7086391 7.39313638,12.0627643 9.06326274,12.0635164 L9.06463788,12.0635164 Z M2.76988055,16.7013968 L2.76988049,16.7013968 C3.5216798,16.7013968 4.13113207,16.0919445 4.13113207,15.3401452 C4.13113207,14.5883459 3.5216798,13.9788936 2.76988049,13.9788936 L2.76988043,13.9788936 C2.01808112,13.9788936 1.40862885,14.5883459 1.40862885,15.3401452 C1.40862885,16.0919445 2.01808112,16.7013968 2.76988043,16.7013968 L2.76988055,16.7013968 Z M15.3401452,4.11188211 L15.3401451,4.11188211 C16.0919444,4.11188211 16.7013967,3.50242984 16.7013967,2.75063053 C16.7013967,1.99883122 16.0919444,1.38937894 15.3401451,1.38937894 C14.5883458,1.38937894 13.9788935,1.99883122 13.9788935,2.75063053 L13.9788935,2.75058545 C13.9796266,3.50131054 14.5879999,4.10972512 15.338725,4.11050715 L15.3401452,4.11188211 Z M15.3992702,16.7027718 L15.3992702,16.7027718 C16.1510695,16.7027718 16.7605218,16.0933195 16.7605218,15.3415202 C16.7605218,14.5897209 16.1510695,13.9802686 15.3992702,13.9802686 C14.6474709,13.9802686 14.0380186,14.5897209 14.0380186,15.3415202 L14.0380186,15.34152 C14.0380186,16.0933193 14.6474709,16.7027718 15.3992702,16.7027718 L15.3992702,16.7027718 Z" id="形状"></path>
                    </g>
                </g>
            </g>
        </g>
    </g>
</svg>