<?xml version="1.0" standalone="no"?><!DOCTYPE svg PUBLIC "-//W3C//DTD SVG 1.1//EN" "http://www.w3.org/Graphics/SVG/1.1/DTD/svg11.dtd"><svg class="icon" width="200px" height="200.00px" viewBox="0 0 1024 1024" version="1.1" xmlns="http://www.w3.org/2000/svg"><path fill="#4092BA" d="M581.504 681.248c0-20.96-18.816-39.04-40.48-39.04a39.2 39.2 0 0 0-39.776 39.776c0 22.4 18.08 40.48 40.48 40.48 20.992 0 39.776-19.52 39.776-41.216z m141.696-172.8H358.848v47.712H723.2v-47.68z m-141.696-127.232c0-20.96-18.816-39.04-40.48-39.04a39.2 39.2 0 0 0-39.776 39.776c0 22.4 18.08 40.48 40.48 40.48 20.992 0 39.776-19.52 39.776-41.216z"  /></svg>