<?xml version="1.0" standalone="no"?><!DOCTYPE svg PUBLIC "-//W3C//DTD SVG 1.1//EN" "http://www.w3.org/Graphics/SVG/1.1/DTD/svg11.dtd"><svg class="icon" width="200px" height="200.00px" viewBox="0 0 1024 1024" version="1.1" xmlns="http://www.w3.org/2000/svg"><path fill="#4092BA" d="M555.744 741.92l7.808 3.648c80.032 38.944 159.392 38.944 239.136 0a10.56 10.56 0 0 1 9.28 19.008c-82.976 40.512-166.56 41.76-249.824 3.68l-7.84-3.68c-80.032-38.976-162.944-38.976-249.504 0.128a10.56 10.56 0 1 1-8.704-19.264c89.408-40.352 176.224-41.6 259.648-3.52zM607.776 257.92v16.736c-12.832 3.744-16.192 3.872-16.192 13.056 0 6.336 2.048-3.232 6.208 4.8l153.376 344.192c7.168 14.624 13.504 24.576 18.976 29.92 5.44 5.344 12.768 8.896 21.888 10.624v16.192h-133.984v-16.192c14.4-2.368 24.864-9.12 24.864-20.256 0-4.608-2.176-11.36-6.528-20.288l-35.072-60.512h-201.024l-27.616 60.512c-4.128 8.736-6.208 15.584-6.208 20.608 0 9.6 2.464 16.256 17.088 19.936v16.192H306.24v-16.192c8.768-1.728 23.104-4.8 27.68-9.12 4.608-4.384 9.824-12.896 15.712-25.536l147.52-343.2c5.216-10.88 7.84-2.88 7.84-9.408 0-10.048-1.792-10.944-14.464-15.328V257.92h117.248z m-60 79.04l-73.984 188.96h150.72l-76.736-188.96z"  /></svg>