<?xml version="1.0" encoding="UTF-8"?>
<svg width="32px" height="32px" viewBox="0 0 32 32" version="1.1" xmlns="http://www.w3.org/2000/svg" xmlns:xlink="http://www.w3.org/1999/xlink">
    <title>编组 23</title>
    <g id="页面-1" stroke="none" stroke-width="1" fill="none" fill-rule="evenodd">
        <g id="工作台首页-数据开发-图标组件" transform="translate(-299.000000, -71.000000)" fill-rule="nonzero">
            <g id="编组-23备份" transform="translate(235.000000, -67.000000)">
                <g id="编组-55" transform="translate(64.000000, 138.000000)">
                    <g id="excel" transform="translate(8.000000, 7.000000)" fill="#2988CC">
                        <path d="M12.22,2.59 L12.22,3.9 L18.27,3.9 L18.27,4.74 L12.22,4.74 L12.22,6.1 L18.27,6.1 L18.27,6.94 L12.22,6.94 L12.22,8.28 L18.27,8.28 L18.27,9.12 L12.22,9.12 L12.22,10.46 L18.27,10.46 L18.27,11.3 L12.22,11.3 L12.22,12.64 L18.27,12.64 L18.27,13.48 L12.22,13.48 L12.22,14.81 L18.27,14.81 L18.27,15.65 L12.22,15.65 L12.22,17.39 L20,17.39 L20,2.59 L12.22,2.59 L12.22,2.59 Z M0,17.87 L11.27,20 L11.27,0 L0,2.13 L0,17.87 Z M4.48,12.9 L2.73,12.9 L5.04,9.23 L2.84,5.7 L4.64,5.7 L5.92,8.04 L7.24,5.7 L8.98,5.7 L6.78,9.17 L9.12,12.9 L7.29,12.9 L5.92,10.45 L4.48,12.9 Z" id="形状"></path>
                    </g>
                    <path d="M1,25.6367449 C1,25.0742214 1.09371147,24.5413015 1.2811344,24.037995 C1.46855734,23.5346852 1.72831863,23.0887372 2.06041924,22.7001521 C2.39251984,22.3115671 2.78216226,21.9951478 3.22934649,21.7508944 C3.67653071,21.5066409 4.15659679,21.3549073 4.66954377,21.2956947 C4.73530624,21.2734899 4.80435708,21.2623874 4.87669544,21.2623874 L6.44512947,21.2623874 L6.44512947,20.374193 C6.45170572,20.226161 6.50431566,20.1151367 6.60295931,20.0411201 C6.70160296,19.9671039 6.8298397,19.9930096 6.98766954,20.1188371 C7.03370328,20.1558452 7.12248285,20.2317122 7.2540074,20.3464369 C7.38553194,20.4611617 7.531854,20.5906904 7.69297164,20.735022 C7.85408928,20.8793536 8.0168513,21.025536 8.18125771,21.173568 C8.34566411,21.3216 8.48705302,21.4511288 8.6054254,21.5621531 C8.71064561,21.6583742 8.8027127,21.7545948 8.88162762,21.8508162 C8.96054254,21.9470373 9,22.0395576 9,22.128377 C9,22.2319996 8.96547472,22.3189691 8.89642417,22.3892841 C8.82737361,22.4595995 8.74352651,22.5391669 8.64488286,22.6279864 L8.15166461,23.0498787 C7.98068261,23.1905098 7.81792058,23.323739 7.66337855,23.4495662 C7.50883651,23.5753934 7.37237978,23.684568 7.2540074,23.7770879 C7.13563502,23.8696081 7.05014353,23.9306711 6.99753391,23.960278 C6.89889026,24.0268926 6.81504316,24.0694515 6.7459926,24.0879559 C6.67694205,24.10646 6.62104366,24.1046096 6.5782984,24.0824047 C6.53555285,24.0601998 6.50267157,24.0231918 6.47965475,23.9713804 C6.45663793,23.919569 6.44512947,23.8640569 6.44512947,23.804844 L6.44512947,22.9166495 L4.87669544,22.9166495 L4.82737361,22.9166495 C4.50513737,22.9536576 4.20591862,23.0480279 3.9297164,23.1997615 C3.65351418,23.3514951 3.41183724,23.5494881 3.20468557,23.7937415 C2.99753391,24.037995 2.83477189,24.3155557 2.71639951,24.6264238 C2.59802713,24.9372918 2.53884094,25.2703647 2.53884094,25.6256425 C2.53884094,26.0031251 2.6046034,26.3565521 2.73612824,26.6859246 C2.86765278,27.015297 3.04850012,27.3021095 3.27866831,27.5463629 C3.50883651,27.7906164 3.77846312,27.9849089 4.08754624,28.1292405 C4.39662935,28.2735721 4.72544216,28.3457379 5.07398274,28.3457379 L6.60295931,28.3346355 C6.70817952,28.3346355 6.81504316,28.3568403 6.92355117,28.4012501 C7.03205919,28.4456598 7.12741504,28.5048727 7.20961776,28.5788889 C7.29182077,28.6529052 7.35922761,28.7398742 7.41183724,28.839796 C7.46444715,28.9397179 7.49075216,29.0488915 7.49075216,29.1673177 C7.49075216,29.278342 7.46444715,29.3856659 7.41183724,29.4892882 C7.35922732,29.5929109 7.28853268,29.68173 7.19975339,29.7557465 C7.11097411,29.8297628 7.01233046,29.8889757 6.90382244,29.9333854 C6.79531443,29.9777951 6.68845079,30 6.58323058,30 L4.87669544,30 L4.78791615,30 C4.76161115,30 4.73201805,29.9962992 4.69913687,29.9888976 C4.17961332,29.9370862 3.69461891,29.7872031 3.24414303,29.5392491 C2.79367004,29.2912952 2.40238421,28.9730252 2.0702836,28.5844402 C1.73818299,28.1958551 1.47677732,27.7499071 1.28606658,27.2465973 C1.09535585,26.7432875 1,26.2066693 1,25.6367449 L1,25.6367449 Z" id="路径" fill="#FF9A36"></path>
                </g>
            </g>
        </g>
    </g>
</svg>