<?xml version="1.0" standalone="no"?><!DOCTYPE svg PUBLIC "-//W3C//DTD SVG 1.1//EN" "http://www.w3.org/Graphics/SVG/1.1/DTD/svg11.dtd"><svg class="icon" width="200px" height="200.00px" viewBox="0 0 1024 1024" version="1.1" xmlns="http://www.w3.org/2000/svg"><path fill="#4092BA" d="M644.928 297.824l-122.848 183.68v289.344l29.024 12.96v-291.616l130.72-195.456c4.256-17.28-5.504-31.36-21.568-31.36H288.096c-16 0-25.856 14.08-21.696 31.36l139.424 195.456v226.816l29.056 12.96v-251.104L304.32 297.824h340.64z m-35.68 178.208c0-8.832 6.336-16.064 14.304-16.192h145.792c8 0 14.56 7.264 14.56 16.192s-6.528 16.16-14.56 16.16h-145.792c-7.968-0.16-14.304-7.36-14.304-16.16z m0 97.184c0-8.832 6.336-16.064 14.304-16.192h145.792c8 0 14.56 7.264 14.56 16.192s-6.528 16.16-14.56 16.16h-145.792c-7.968-0.128-14.304-7.36-14.304-16.16z m0 97.216c0-8.832 6.336-16.064 14.304-16.192h145.792c8 0 14.56 7.264 14.56 16.192s-6.528 16.16-14.56 16.16h-145.792c-7.968-0.16-14.304-7.296-14.304-16.16z"  /></svg>