<?xml version="1.0" standalone="no"?><!DOCTYPE svg PUBLIC "-//W3C//DTD SVG 1.1//EN" "http://www.w3.org/Graphics/SVG/1.1/DTD/svg11.dtd"><svg class="icon" width="200px" height="200.00px" viewBox="0 0 1024 1024" version="1.1" xmlns="http://www.w3.org/2000/svg"><path fill="#4092BA" d="M435.52 863.328a310.144 310.144 0 0 1-58.016-10.912 266.88 266.88 0 0 1-86.4-44.352c-10.752-8.32-33.792-31.392-43.2-43.2-34.944-44-52.704-91.904-54.4-146.656a242.336 242.336 0 0 1 9.6-76.32c1.92-6.752 2.048-7.456 1.6-15.584a124 124 0 0 1 2.976-32.64c1.856-7.232 6.784-17.888 9.984-21.76l1.92-2.4-0.192 12.672c-0.352 18.336-0.352 18.336 5.472 8.192a244.48 244.48 0 0 1 50.432-63.168c5.728-5.12 10.88-9.856 11.36-10.56 0.544-0.576 2.592-5.152 4.672-10.208 6.08-15.104 11.456-23.36 17.408-26.336 5.152-2.624 9.728-1.248 10.88 3.104a25.28 25.28 0 0 1-0.224 6.304c-0.32 1.6-0.448 3.104-0.32 4.672 0.096 0 4.544-2.272 9.92-5.12 19.04-10.08 32.672-15.904 61.44-26.112 9.408-3.328 18.336-6.688 19.808-7.232 8-3.424 12.384-14.88 11.712-30.464a40.8 40.8 0 0 0-3.104-14.784 87.296 87.296 0 0 0-3.52-9.312c-1.536-2.848-1.28-3.424 1.12-2.72 6.88 1.92 15.04 8.608 20.16 16.256 2.976 4.608 8 15.36 8 17.408 0 1.6 1.056 0.832 3.36-2.528 8.928-13.28 9.056-28.416 0.096-43.648a72.736 72.736 0 0 0-18.88-18.656c-8.128-4.928-13.056-6.4-21.76-6.336-6.688 0-7.36-0.064-9.312-1.696a11.84 11.84 0 0 1-3.2-10.08c0.8-4.16 7.808-17.536 12.736-24.064 7.84-9.664 16.864-18.368 26.816-25.888 26.816-19.008 60.352-30.464 99.328-34.016 9.408-0.928 9.76-0.928 11.712-3.008 1.824-1.92 2.4-2.176 6.4-2.176 3.904 0 5.024 0.352 9.408 2.88 4.576 2.656 5.056 2.72 6.976 1.92 1.504-0.64 3.904-0.768 8.256-0.544 4.928 0.32 6.4 0.224 7.68-0.704 2.272-1.6 5.024-1.376 9.152 0.704 1.952 1.056 7.68 2.752 12.832 3.872 24.064 5.28 43.328 12.736 61.664 23.872 3.328 1.92 6.08 3.648 6.208 3.648 0.32 0 0-2.624-0.96-7.2l-0.32-2.08 4.48 2.624c5.792 3.52 11.072 9.056 13.952 14.56 2.048 3.872 2.496 4.48 3.552 3.776a4.256 4.256 0 0 1 3.328-0.128c1.504 0.608 2.624 2.24 5.824 8.64 2.176 4.352 4.16 8.128 4.384 8.352 0.32 0.32 2.528-1.6 4.928-4.384 5.12-5.6 9.824-8.704 16.128-10.88 5.856-1.92 9.408-1.6 12.032 1.376 2.624 2.976 2.624 6.752-0.096 12.608-5.28 11.104-7.68 21.312-6.784 29.12L735.04 256l3.2-2.176c2.88-2.048 3.52-2.272 8.96-2.272 5.6 0 11.648 1.728 11.648 3.328a27.584 27.584 0 0 1-3.296 4.704c-5.408 6.528-6.784 10.304-6.688 18.336 0.128 7.328 0.48 9.056 5.184 25.44 1.856 6.08 3.776 13.824 4.48 17.408 0.32 2.304 0.928 4.48 1.824 6.528 1.152 0 9.184-6.624 13.984-11.552 1.792-1.92 3.68-3.68 5.76-5.28 0.864 0 2.624 5.472 3.392 11.008 0.928 6.4 0.256 12.736-2.176 20.256-1.376 4.576-1.376 5.024-0.32 7.2 1.824 3.808 2.016 7.936 0.768 13.12-2.048 8.8-5.824 14.976-15.584 25.184l-5.024 5.28-0.8 6.944c-0.544 4.352-1.28 8.672-2.272 12.96a30.24 30.24 0 0 0-1.056 6.304c0.256 0.256 0.928 0 1.472-0.544 1.504-1.28 6.336-0.608 11.136 1.696 9.728 4.736 28.416 21.792 35.744 32.8l4.032 5.824 6.304 1.6c25.92 6.528 46.176 25.44 57.28 53.504 3.52 8.8 5.984 20.064 7.68 34.688 0.544 4.608 1.824 8.64 5.248 17.312 2.56 6.336 4.928 13.184 5.408 15.264 1.28 5.6 0.544 12.928-1.728 18.336-1.28 3.04-2.4 6.176-3.328 9.376a32.96 32.96 0 0 1-22.496 24.192c-3.968 1.024-17.504 7.328-17.504 8.16 0 0.192 0.896 0.544 2.176 0.896 6.4 1.28 14.88 7.328 17.056 12.256a25.536 25.536 0 0 0 3.808 5.728c6.176 8.224 7.68 15.808 5.44 27.712l-1.216 6.176 1.824 2.304c6.56 7.904 12.064 18.24 14.08 26.112 2.88 11.136 2.752 21.888-0.192 38.304l-1.248 6.848 2.4 3.424c4.48 6.56 5.376 12.736 3.072 21.568-5.696 22.112-22.464 38.496-45.824 44.672l-4.576 1.152v6.176c0 4.704-0.32 6.88-1.504 9.312a19.904 19.904 0 0 1-9.408 9.408c-6.496 2.816-16.352-0.256-21.184-6.784-2.4-3.328-2.624-3.328-6.08-3.328a26.144 26.144 0 0 1-6.656-1.152c-7.2-2.528-10.656-7.552-10.752-16l-0.128-4.96-4.576-2.752a68.672 68.672 0 0 1-16.512-13.376l-4.48-4.8 2.304 4.576c9.856 19.456-1.28 40.64-24.736 46.976-4.8 1.376-8.48 1.6-29.12 2.048-31.84 0.8-264.576 0.704-274.752-0.096h0.032z m396.224-11.84c2.976-2.496 4.096-9.12 2.272-12.672-1.728-3.36-4.128-4.384-11.232-4.928-8.128-0.608-10.464-1.856-10.464-5.28 0-4.48 0.832-4.704 18.816-4.928 17.536-0.256 22.816-1.024 30.464-4.928 6.784-3.424 15.392-14.08 16.192-20.064l0.32-2.72-4.8 1.376c-18.304 5.12-43.104 6.08-61.184 2.272-19.456-4.128-37.472-15.232-43.872-27.168l-1.6-2.976-0.832 2.08c-0.768 3.232-1.056 6.56-0.896 9.856-0.128 7.232 0.096 8 2.176 12.256 4.256 8.928 13.408 17.6 24.64 23.264 5.888 2.976 6.08 3.072 5.632 5.248l-1.152 7.104c-1.152 6.176-0.576 9.536 2.304 12.864 2.976 3.392 7.36 5.248 11.904 5.024 2.752 0 4.48 0.448 5.6 1.376 6.08 4.704 12.384 5.984 15.744 2.976h-0.032z m-146.784-5.344c13.632-1.952 17.984-2.08 25.312-0.352 14.912 3.2 30.368 0.544 37.12-6.4 4.48-4.704 5.856-12.064 3.104-16.64-3.424-5.632-12.384-9.408-22.24-9.408-6.88 0-10.4 1.056-22.336 6.08a100.224 100.224 0 0 1-11.104 4.224c-5.056 1.056-7.808-1.856-7.808-8.096 0-6.912 1.92-9.088 16.512-19.36 12.48-8.832 19.904-19.04 21.76-29.696 0.8-4.928-0.096-11.84-1.856-13.408a38.656 38.656 0 0 0-8.608-3.104c-24.384-7.2-35.52-16.448-46.176-38.368a171.04 171.04 0 0 1-10.208-26.656 113.248 113.248 0 0 0-4.48-12.768c-7.904-17.504-27.264-33.216-49.376-40.448-9.376-2.976-15.328-4.16-30.336-5.376-5.504-0.448-11.008-1.056-16.48-1.6l-3.552-0.576 4.928-2.56c6.08-3.072 10.4-4.448 16.96-5.344 9.152-1.408 15.456-1.76 22.24-0.96 27.008 3.104 47.424 16.992 61.76 42.176 5.376 9.408 9.184 19.008 12.928 32.32 4.384 15.456 8.288 23.232 15.744 31.04 12.032 12.864 28.064 18.56 51.744 18.56a84.704 84.704 0 0 0 45.6-11.456c9.28-5.44 17.984-15.808 20.864-24.64 0.8-2.624 1.824-4.8 2.176-4.8 0.48 0 3.104 0.576 5.984 1.12 4.8 1.184 5.504 1.184 11.36 0 9.248-1.664 11.776-1.472 14.08 1.056 3.648 3.776 8.16 4.48 13.28 2.048a17.632 17.632 0 0 0 5.152-4.48c1.76-2.272 2.112-3.424 1.984-6.048-0.256-3.104-0.352-3.232-5.76-6.784a29.92 29.92 0 0 1-5.376-3.872c0-0.128 1.28-1.28 2.848-2.304 2.304-1.504 3.68-1.824 5.76-1.696 2.944 0.192 2.944-0.096 0.096-5.76a24.96 24.96 0 0 0-11.84-11.648c-9.824-4.8-21.024-4.8-33.536 0-7.552 2.976-8.704 2.976-13.888 0.672-6.72-2.976-13.632-3.968-22.88-3.424-11.616 0.672-19.136-0.544-22.016-3.424l-2.176-2.208 9.152-0.96c14.432-1.216 18.56-2.496 31.328-9.472 7.872-4.352 12.576-5.472 24.384-6.176 16.96-1.056 25.088-3.904 29.536-10.656 1.6-2.4 2.56-3.104 3.232-2.656a18.656 18.656 0 0 0 22.816-14.304c0.448-2.4 0.32-2.56-6.976-9.056a71.168 71.168 0 0 1-7.456-7.104c0-0.256 1.12-1.504 2.528-2.656 4.128-3.68 7.104-3.072 15.552 3.104 1.504 1.152 1.6 1.152 1.6-0.096 0-2.752-1.728-7.36-6.656-17.92-5.824-12.32-6.304-13.696-7.456-23.552-3.52-30.272-19.808-55.488-45.248-70.272a39.584 39.584 0 0 0-6.176-3.296 20.896 20.896 0 0 0-2.72 4.576 31.232 31.232 0 0 1-4.928 7.328c-2.24 2.272-3.104 2.88-5.28 2.88-3.104 0-5.28-1.6-5.28-3.904 0-0.896 0.96-3.68 2.08-6.08 3.52-7.68 4.576-12.928 3.52-18.912-2.368-14.08-15.552-29.76-32.064-38.496-6.432-3.296-7.136-3.2-7.584 0.928-0.448 4.8 0.608 14.4 2.304 20.832 0.704 3.008 3.424 10.24 5.856 15.84 6.4 14.656 8.352 21.184 8.352 27.616a20.8 20.8 0 0 1-1.12 7.904 22.816 22.816 0 0 1-8.288 9.408c-2.4 1.248-5.12 1.376-4.576 0.096 3.68-8.48 4.928-12.576 5.28-17.76 0.352-7.328-0.576-10.752-6.88-23.584-6.272-12.96-8-19.968-7.68-30.624l0.352-7.456-1.696 3.36c-2.24 4.096-4.704 8.128-7.328 12.032-8.96 13.824-11.776 21.28-11.776 30.592 0 8.704 3.296 20.736 8.096 29.312 0.896 1.696 1.6 3.2 1.408 3.456a19.04 19.04 0 0 1-4.256-3.328c-3.904-3.776-9.504-13.312-9.504-16.288 0-2.048-1.28-1.6-6.976 2.048-10.752 6.88-18.464 13.888-28.672 25.92-14.88 17.632-35.04 30.784-59.84 38.944-5.792 1.952-24.864 6.976-42.112 11.36-47.584 11.776-64.192 17.6-86.176 30.336-43.52 24.992-66.368 58.688-70.816 104.544-1.6 16.48 0.64 41.344 5.376 59.2 0.8 2.656-3.776-3.296-6.656-8.8-5.056-9.76-8.384-21.888-9.984-36.992-1.472-13.536 0.128-40.448 3.328-54.912l0.48-2.048-10.56 0.48c-25.888 1.12-47.424 8.448-64.96 22.336-2.656 2.016-5.184 4.16-7.552 6.528l-1.76 2.176 0.48-2.048c0.768-3.808 4.928-11.904 8.32-16.32 7.04-9.376 21.248-18.176 36.032-22.656 3.872-1.152 15.808-4.032 26.336-6.4l20.608-4.608a25.472 25.472 0 0 0 4.48-6.656c1.824-3.52 5.248-8.896 7.584-12.032a27.776 27.776 0 0 0 3.744-6.08c-3.84 0.32-7.648 0.832-11.424 1.504a1782.4 1782.4 0 0 1-30.176 4.224c-21.056 2.752-32.992 4.928-44 8.16-34.048 9.856-53.76 28.864-63.904 61.856l-2.656 8.64 1.408 4c2.176 6.528 9.6 21.12 14.656 28.544 19.488 28.96 49.984 52.576 87.424 67.328 8.448 3.456 9.504 4.032 13.856 8.384 2.656 2.56 4.704 4.672 4.576 4.8-0.544 0.576-22.08-5.024-31.488-8.128a197.28 197.28 0 0 1-61.984-33.696 79.36 79.36 0 0 0-12.96-8.256 156.256 156.256 0 0 1-41.12-30.4 83.456 83.456 0 0 1-14.304-19.68l-3.008-5.632 4.256 4.032c9.408 8.608 23.04 17.44 29.664 19.264 1.6 0.448 1.504 0.096-1.28-4.704a178.624 178.624 0 0 1-10.624-23.04 45.696 45.696 0 0 0-8.256-14.4c-21.888-28.544-37.92-57.216-49.184-87.808l-3.424-9.504-0.576 3.2a184.96 184.96 0 0 0-0.704 15.84l-0.096 12.576 4.16 11.36c4.192 11.584 19.456 52.704 20.704 56.16 0.448 1.024 0.576 1.92 0.448 1.92a113.6 113.6 0 0 1-5.472-6.752c-6.784-8.48-14.24-19.712-15.584-23.264l-1.152-2.752 0.448 2.4a237.76 237.76 0 0 0 13.664 46.208c17.152 40.32 45.472 75.744 79.872 99.904 33.44 23.616 78.944 40.096 119.136 43.392a9795.2 9795.2 0 0 0 127.2 0.704c103.232 0 121.088-0.096 127.52-1.024h-0.032z m49.376-195.616a81.408 81.408 0 0 1-22.24-8c-13.504-7.936-23.168-21.76-24.064-34.72-0.32-4.608-0.32-4.608 0.704-2.208 6.08 15.488 17.856 28 34.048 36.256 7.456 3.648 11.52 5.248 20.256 7.456l7.808 2.048-6.4-0.128a80.64 80.64 0 0 1-10.112-0.672z m77.216-70.336c-7.104-1.696-15.04-8-17.184-13.76a21.76 21.76 0 0 1 0.576-14.08l1.152-2.048 0.448 2.848c1.376 7.008 6.304 13.088 13.408 16.16 2.176 1.024 7.552 2.4 12.032 3.2 6.752 1.152 11.104 2.432 13.632 4a29.856 29.856 0 0 0 0.576-6.944c0.128-6.976 0.128-7.232-1.024-5.536-2.4 3.584-5.824 6.304-8 6.304-2.752 0-15.008-4.48-18.368-6.624-4.224-2.752-5.44-5.504-5.44-11.2 0-4.16-0.384-5.216-1.6-6.72l-1.632-1.568 3.328-3.104c5.632-5.024 8.928-6.304 16.736-6.304 7.552 0 10.752 1.152 16.032 5.632 7.584 6.4 10.112 22.24 5.6 35.296l-1.6 4.8-12.928 0.128c-5.248 0.224-10.56 0-15.68-0.48h-0.064z m8.48-24.96c2.56-1.28 4.032-4.064 3.904-7.232-0.128-2.112-0.704-3.104-2.656-4.928-4.128-3.776-9.6-2.656-12.032 2.4-3.2 6.624 4.16 13.28 10.752 9.856l0.032-0.128z m-59.712 251.936a61.056 61.056 0 0 1-7.552-17.536c-2.304-10.56-0.256-27.264 4.48-35.264l1.824-3.232-5.824 0.448a119.232 119.232 0 0 1-9.312 0.448h-3.424v5.28c0 10.304-4.8 23.04-12.384 32.448l-3.872 4.928 7.2 0.544c3.872 0.256 9.152 1.024 11.808 1.856 5.28 1.6 11.904 5.6 15.552 9.504 2.88 3.072 3.456 3.328 1.504 0.544z m96.608-24.64a23.584 23.584 0 0 0 12.256-10.976c2.528-5.184 5.184-18.688 5.728-28.672a50.112 50.112 0 0 0-0.8-13.76c-1.152-5.472-5.376-15.232-8.032-18.464l-1.344-1.696-3.456 2.56c-7.552 5.344-13.6 6.304-21.408 2.816a27.168 27.168 0 0 0-11.68-2.272l-7.136-0.256-2.272 4.032a63.072 63.072 0 0 1-29.76 27.04l-5.408 2.528-0.448 3.776c-1.92 15.36 8.256 26.016 30.816 31.744 11.808 3.072 15.68 3.424 28.064 3.328 9.312-0.256 11.456-0.448 14.912-1.696h-0.032zM290.4 673.472c6.4-31.264 30.176-52.256 70.496-62.24 9.952-2.528 26.56-5.696 56.608-11.2 39.52-7.136 51.648-10.912 66.208-20.64l8.8-5.824-37.12-0.256c-45.472-0.224-51.424 0.352-69.184 6.176-11.264 3.808-22.368 8.736-52.832 23.68-14.432 7.136-26.464 12.864-26.56 12.768-0.256-0.352 10.976-10.24 16.704-14.688 18.816-14.784 49.6-31.968 69.344-38.528 33.664-11.328 59.584-13.472 114.112-9.6l26.144 1.952 10.208-2.528c9.92-2.528 20.16-4.48 39.392-7.552 3.36-0.48 6.528-1.152 9.856-1.856 0.096-0.096-0.32-0.448-1.152-0.672a41.472 41.472 0 0 1-10.624-5.408 28.064 28.064 0 0 1-4.384-3.2c0-0.096 9.056-0.096 20.288 0 20.16 0.256 20.256 0.256 27.392-1.696 44-11.936 80.224-44.352 99.456-89.376 4.032-9.408 10.976-29.312 10.528-29.92-0.192-0.224-2.624 0.896-5.248 2.56a235.616 235.616 0 0 1-29.44 14.656 209.632 209.632 0 0 1-64.768 14.528l-6.304 0.48-5.056 4.672c-17.536 16.64-44 32.32-68.16 40.672-13.536 4.704-21.92 6.528-65.344 14.784-21.536 4.128-45.92 8.8-54.272 10.656-60.64 12.704-99.488 28.608-120.448 49.472-6.464 6.08-11.584 13.344-15.136 21.44a48.192 48.192 0 0 1-7.808 11.712 61.984 61.984 0 0 0-12.384 23.584c-2.624 10.88-1.504 26.816 3.232 40.48 1.6 4.928 5.952 14.88 6.4 14.88a24.64 24.64 0 0 0 1.056-4.032v0.064z m-24.032-25.6l-0.704-10.624-7.68-11.456c-4.672-7.136-9.28-14.368-13.76-21.664a595.84 595.84 0 0 1-21.984-42.592L220.8 558.08l0.32 2.752c0.832 5.376 4.384 19.84 7.008 27.712 5.632 17.536 15.04 36.896 25.216 52.256 4.576 6.88 13.28 18.464 13.632 18.112 0-3.68-0.224-7.328-0.576-11.008z m-0.256-40.992c-2.272-11.552-1.248-27.392 2.56-36.704 1.472-3.84 4.672-10.4 5.12-10.4 0.128 0 1.28 2.752 2.56 6.176 2.176 6.208 5.28 12.16 6.176 12.16a19.04 19.04 0 0 0 3.2-4.672 163.84 163.84 0 0 1 7.136-10.56l4.576-5.984-2.88-1.696c-8.96-5.76-17.088-18.656-20.64-32.8-3.424-13.952-4.48-35.2-2.624-52.608 0.576-4.8 0.896-8.8 0.704-9.024-0.48-0.48-10.24 11.68-16.384 20.256a235.264 235.264 0 0 0-25.344 46.656l-3.104 7.808 3.008 8.576c8.96 24.64 21.376 47.872 36.896 68.992a35.648 35.648 0 0 0-0.96-6.176z m43.104-55.04c-2.048-8.448-2.976-19.68-2.976-39.584 0-19.2 0.096-22.016 1.6-30.272a150.72 150.72 0 0 1 8.96-30.464c2.528-5.28 9.504-17.408 9.92-16.96 0.128 0.096-0.672 7.008-1.824 15.104-3.072 23.744-3.776 32.416-3.328 46.08 0.608 15.584 3.328 35.2 5.056 35.2 0.672 0 0.896-3.36 0.8-14.72-0.32-17.44 2.048-34.816 7.104-51.52 5.856-20.544 18.208-47.456 29.568-64.448a27.328 27.328 0 0 0 2.4-3.968c0-0.256-1.824-0.128-4.128 0.192-27.04 4.16-48.928 22.24-59.936 49.536l-2.752 6.72 0.352-4.8c0.928-13.728 3.68-32.992 5.504-39.392 0.224-0.704-0.48 0.32-1.504 2.176-8 15.04-15.84 57.952-15.84 88.096 0 22.112 4.032 38.048 11.968 48.704 3.744 4.928 9.824 7.872 9.024 4.32h0.032z m37.376-26.88c6.176-3.104 14.752-5.504 51.904-14.88 12.8-3.2 25.504-6.592 38.176-10.24a119.872 119.872 0 0 0 45.92-27.712c13.536-13.088 18.112-19.936 22.368-34.144 1.92-6.528 1.92-6.528 3.2-4.928 5.504 7.232 5.376 24.416-0.128 35.296-0.8 1.376-1.152 2.656-0.8 2.656 1.504 0 9.28-5.76 12.48-9.184 8.64-9.152 12.512-17.536 19.392-40.8a120.64 120.64 0 0 1 3.52-10.784c0.608-0.64 3.2 5.184 4.704 10.88 0.8 3.136 1.152 7.136 1.152 12.992 0.064 8.96-2.08 17.824-6.272 25.76l-2.56 4.928 3.776-1.92c9.056-4.96 25.664-25.216 32.8-40.128 4.192-8.032 6.304-16.96 6.176-26.016 0-12.48-2.624-20.768-10.08-31.616-9.856-14.208-32.096-30.72-51.584-38.4-2.976-1.12-4.928-2.624-8.256-6.4-2.528-2.752-4.128-4.928-3.776-4.928 0.896 0 13.888 3.424 22.56 6.08 20.736 6.176 36.896 15.2 49.504 27.584 14.432 14.368 21.312 29.472 21.216 46.56-0.096 15.232-5.504 28.992-17.184 44.576-1.504 1.856-2.88 3.808-4.128 5.824 0 0.608 11.232-4.48 18.336-8.096 8.8-4.736 23.136-14.464 28.736-19.392 7.584-6.976 17.92-24.064 22.24-37.344 4.256-12.8 4.928-27.392 1.856-39.424-2.624-10.56-9.6-22.784-18.336-32.192l-3.648-4h3.52c1.92 0 3.808-0.352 3.904-0.704 0.896-1.376-1.152-4.48-4.384-6.4-5.376-3.456-7.68-3.808-17.76-2.56-11.232 1.504-29.216 1.504-37.92 0a66.24 66.24 0 0 1-20.064-6.176L554.4 288l25.664-0.32c19.52-0.256 26.944-0.704 31.552-1.504 6.496-1.28 11.104-3.104 12.576-4.928 0.96-1.024 0.704-1.504-1.696-4.032-7.936-8.128-22.464-18.24-37.248-25.664a178.24 178.24 0 0 0-81.824-19.36c-11.36 0-25.184 1.152-31.264 2.624l-1.728 0.32 2.048-2.144c2.752-2.976 12.064-7.488 18.816-9.152 12.032-3.104 28.768-4.16 44.896-3.008a166.688 166.688 0 0 1 60.96 15.584c4.736 2.08 9.056 3.776 9.76 3.68 1.824-0.096 4-2.176 5.024-4.704l0.96-2.176 2.176 4.8c1.248 2.656 2.176 5.056 2.176 5.536 0 1.696 1.376-0.224 2.176-3.2a9.952 9.952 0 0 1 1.472-3.584c0.704-0.416 2.656 3.68 4.928 10.784l1.6 5.152 3.68-3.68c4.224-4.224 4.352-4.096 5.056 5.184l0.32 6.08 3.232-2.048c1.824-1.056 3.552-1.76 3.808-1.504 0.192 0.352 1.024 2.752 1.92 5.376 2.56 8 5.952 14.592 10.112 19.168 1.92 2.4 4.8 6.4 6.176 9.024 1.376 2.56 2.72 4.48 3.072 4.48 1.024-0.448 5.952-9.056 8.256-14.784a25.888 25.888 0 0 1 2.752-5.504c1.024 0 1.6 7.904 1.248 16.64-0.256 2.88-0.256 5.792 0 8.704a28.448 28.448 0 0 0 3.68-2.4 16.64 16.64 0 0 1 3.872-2.56c1.504 0-1.824 22.016-4.224 28.416-1.056 2.336 1.056 1.152 5.632-3.424 2.528-2.528 4.576-4.096 4.576-3.68 0 1.856-4.16 17.184-5.632 20.992-1.344 3.232-2.88 6.4-4.576 9.504-2.848 5.152-5.12 10.56-6.976 16l-0.448 1.984 3.424-2.304c3.808-2.624 5.504-3.456 26.112-11.456 18.24-7.2 28.544-12.16 32.672-15.808a18.656 18.656 0 0 0 6.88-13.536v-3.68l-2.048 2.752c-3.904 5.376-13.12 12.928-21.568 17.984l-2.848 1.6 2.208-2.432c9.376-10.304 15.808-24.48 15.808-35.296 0-3.872-1.024-9.504-2.304-12.48-0.896-2.208-0.896-2.208-6.08 10.656-6.08 14.784-11.808 26.56-15.552 32.32-5.76 8.352-14.24 15.904-19.392 17.152-1.696 0.48-1.824 0.352-1.248-0.8 1.28-2.272 2.88-9.376 3.68-15.68 0.32-3.328 0.8-19.712 1.056-36.32 0.448-29.664 0.896-37.6 2.72-45.504 0.96-3.872 0.96-4-2.048-12.032a244.576 244.576 0 0 0-4.928-11.808c-1.92-3.84-6.304-9.952-7.2-9.952a53.76 53.76 0 0 0-4.032 7.904l-3.52 7.808-0.384-6.656c-0.192-5.28-0.544-6.976-1.824-8.704a48.416 48.416 0 0 0-12.832-11.264 153.6 153.6 0 0 0-21.056-10.624c-1.76-0.48-1.76-0.48-1.28 3.296 0.32 2.112 0.704 4.608 0.928 5.536 0.448 1.6 0.32 1.6-2.304 1.152a21.28 21.28 0 0 1-11.904-6.88 14.24 14.24 0 0 0-3.68-3.2 26.56 26.56 0 0 0 1.824 6.656c1.056 3.424 1.92 6.4 1.76 6.496-0.48 0.448-5.408-1.344-7.456-2.848a34.24 34.24 0 0 1-5.536-7.328 39.392 39.392 0 0 0-6.4-8.32c-4.608-3.936-6.656-4.512-28.416-6.72a43.616 43.616 0 0 1-13.184-3.168c-1.152-0.448-1.056 0 0.448 3.328 0.896 2.048 1.92 4.928 2.176 6.304l0.448 2.56-3.072-0.736a46.656 46.656 0 0 1-15.744-6.304c-4.576-2.72-4.928-2.848-13.152-3.424-9.6-0.544-19.264 0-28.768 1.92l-5.28 1.28 5.28 0.544c7.104 0.832 13.184 2.752 16.96 5.536 2.976 2.176 5.472 4.672 5.472 5.6 0 0.256-5.44 0.608-12.384 0.8-19.808 0.448-32.288 3.68-49.952 12.384-8.8 4.48-32.992 20.064-38.976 25.248-3.52 2.944-9.952 11.424-9.952 13.024 0 0.896 1.376 1.6 5.152 2.656 28.448 8.096 46.304 28.864 49.728 57.728 2.656 20.864 2.208 33.696-1.248 47.552-5.376 21.312-19.264 41.792-34.816 51.456-5.728 3.52-17.536 8.128-21.12 8.128h-2.048l3.68-4.032c8.48-9.28 14.688-21.12 18.816-36.064 2.4-8.384 2.624-17.184 0.544-23.872-1.376-4.8-1.824-4.928-3.2-0.544-1.888 5.536-4.384 10.848-7.424 15.808-1.504 2.208-11.36 12.608-22.464 23.68-25.344 25.12-35.84 38.208-45.696 56.288-8 14.976-13.376 31.232-15.936 48-1.376 11.616-1.056 31.296 0.672 31.296 0.256 0 2.752-1.056 5.536-2.4h-0.096z m335.136-105.632c18.208-6.08 32.448-12.736 44.352-20.64a117.44 117.44 0 0 0 26.336-25.888c6.304-8.96 15.488-28.32 13.984-29.664-0.8-0.8-13.184 3.872-17.312 6.528-4.48 2.848-7.232 5.024-20.48 16.48-13.088 11.232-15.712 13.088-22.4 16.288-6.944 3.424-11.2 3.776-15.68 1.12a12.48 12.48 0 0 1-2.88-1.92 12.16 12.16 0 0 1 2.88-2.08c3.104-1.92 8.96-7.552 8.384-8.128a52.032 52.032 0 0 0-9.056 4.576c-23.84 13.632-36.352 24.96-38.4 34.944-0.544 2.88 0.128 2.976 7.68 0.448 18.464-5.952 40.224-17.408 67.712-35.52 8-5.28 11.936-7.456 15.488-8.48a20.16 20.16 0 0 1 5.152-1.024c0.8 0.896-8 11.008-15.136 17.408-17.76 15.936-34.016 26.56-52.704 34.848a66.24 66.24 0 0 0-7.808 3.776c0.48 0 4.8-1.376 9.856-3.072z m26.144-111.168c7.552-11.232 9.856-19.712 10.88-38.944 0.896-18.24 2.88-29.024 7.808-43.104 1.152-3.424 1.92-6.176 1.696-6.4-0.672-0.704-7.776 8.576-10.176 13.504-7.136 14.336-12.608 39.424-15.264 69.184l-1.024 12.48c0 1.28 2.976-2.016 6.08-6.72z"  /></svg>