<?xml version="1.0" standalone="no"?><!DOCTYPE svg PUBLIC "-//W3C//DTD SVG 1.1//EN" "http://www.w3.org/Graphics/SVG/1.1/DTD/svg11.dtd"><svg class="icon" width="200px" height="200.00px" viewBox="0 0 1024 1024" version="1.1" xmlns="http://www.w3.org/2000/svg"><path fill="#4092BA" d="M764.128 582.24h-268.16a21.984 21.984 0 0 1-21.952-21.952v-109.344c0-12.16 9.824-21.984 21.984-21.984h268.128c12.16 0 21.984 9.824 21.984 21.984v109.344c0 12.128-9.856 21.952-21.984 21.952z m-246.176-43.936h224.192v-65.408h-224.192v65.408zM764.16 787.2h-268.16a21.984 21.984 0 0 1-21.952-21.984V655.36c0-12.16 9.824-21.984 21.984-21.984h268.128c12.16 0 21.984 9.856 21.984 21.984v109.888c0 12.16-9.856 21.984-21.984 21.984z m-246.176-43.968h224.192v-65.92h-224.192v65.92z m246.176-365.376h-268.16a21.984 21.984 0 0 1-21.952-21.984V245.984c0-12.16 9.824-21.984 21.984-21.984h268.128c12.16 0 21.984 9.856 21.984 21.984v109.888c0 12.16-9.856 21.984-21.984 21.984z m-246.176-43.968h224.192v-65.92h-224.192v65.92zM360.256 731.2H246.528a21.984 21.984 0 0 1-21.984-21.984V302.56c0-12.128 9.856-21.952 21.984-21.952h113.728a21.984 21.984 0 1 1 0 43.936H268.512v362.656h91.744a21.984 21.984 0 0 1 0 43.968z"  /><path fill="#4092BA" d="M360.256 527.84H246.528a21.984 21.984 0 0 1 0-43.936h113.728a21.984 21.984 0 0 1 0 43.936z m189.568-157.12a21.984 21.984 0 0 1-21.984-21.984V258.08a21.984 21.984 0 0 1 43.968 0v90.656c0 12.16-9.824 21.984-21.984 21.984z m0 208.224a21.984 21.984 0 0 1-21.984-21.984v-90.656a21.984 21.984 0 0 1 43.968 0v90.656c0 12.16-9.824 21.984-21.984 21.984z m0 203.296a21.984 21.984 0 0 1-21.984-21.952v-90.688a21.984 21.984 0 0 1 43.968 0v90.688c0 12.128-9.824 21.952-21.984 21.952z"  /></svg>