<?xml version="1.0" standalone="no"?><!DOCTYPE svg PUBLIC "-//W3C//DTD SVG 1.1//EN" "http://www.w3.org/Graphics/SVG/1.1/DTD/svg11.dtd"><svg class="icon" width="200px" height="200.00px" viewBox="0 0 1024 1024" version="1.1" xmlns="http://www.w3.org/2000/svg"><path fill="#4092BA" d="M871.872 548.064a20.992 20.992 0 0 0-17.28-9.056c-7.456 0-14.624 3.52-20.992 6.624-1.632 0.768-3.232 1.568-4.8 2.24-1.824 0.8-3.68 1.6-5.6 2.144a14.624 14.624 0 0 1-3.712 0.64c-1.088 0-2.496 0-4.288-5.44a486.944 486.944 0 0 0-20.8-51.968c-3.744-8-8.448-15.712-13.024-23.232-8.64-14.176-16.768-27.584-17.76-40.96-1.056-14.144 4.864-29.312 11.104-45.344 3.2-8.16 6.464-16.64 8.832-25.12 1.728-6.144 3.968-17.728-0.512-25.92l-0.96-1.792c-14.08-25.728-28.608-52.384-45.6-76.992-17.376-25.152-48.832-40.128-84.16-40.128-28.064 0-53.6 10.016-68.384 26.752-7.392 8.352-12.96 9.344-16.512 9.344-4.896 0-10.816-2.08-18.688-6.56a907.936 907.936 0 0 0-174.432-75.712 93.824 93.824 0 0 0-28.48-4.992c-18.4 0-33.632 7.584-46.624 23.2a114.4 114.4 0 0 1-11.456 11.328 169.248 169.248 0 0 0-9.92 9.44c-23.264 24.64-47.136 37.568-75.104 40.704-11.264 1.248-24.384 8.48-31.872 17.536-37.248 45.184-37.92 88.256-2.08 135.488 3.68 4.896 7.456 9.76 11.52 14.368 33.728 38.368 54.688 70.752 67.936 104.992 4.576 11.84 12.576 17.6 24.416 17.6 1.088 0 2.24-0.032 3.488-0.128 25.856-2.144 51.744-4.064 78.08-6.016l15.776-1.152-0.32 0.512c-26.592 41.632-34.016 90.368-23.264 153.312 9.536 56 37.952 107.136 82.176 147.744 40.16 36.864 85.44 55.552 134.56 55.552h2.784c41.184-0.64 75.328-19.456 108.32-37.664 5.344-2.976 10.752-5.92 16.224-8.832 4.48-2.496 4.16-7.264 4.032-9.28l-0.096-2.016v-8.192l-21.44 1.824c-9.696 0.832-19.328 1.664-28.992 2.24l-7.04 0.48a145.28 145.28 0 0 1-12.192 0.672c-11.328 0-19.456-2.56-25.056-15.36a38.944 38.944 0 0 0-8-10.816c-1.632-1.728-4.416-4.64-4.64-5.408 0.352-1.472 3.744-5.024 5.792-7.168 1.952-2.016 3.872-4.096 5.44-6.08l6.528-8.544-10.272-3.232c-26.656-8.384-32.48-14.304-31.648-23.648l30.592 17.184 11.872-17.088-3.84-4.448a433.92 433.92 0 0 0-6.944-7.68c-5.568-6.08-10.848-11.84-15.136-18.144-1.024-1.472-1.408-4.48-1.76-7.488a29.376 29.376 0 0 1 7.52-1.216l0.832 0.032c7.04 2.752 13.696 7.712 17.312 12.992 11.104 16 26.56 24.8 48.704 27.648 5.44 0.704 10.784 1.6 16.16 2.464 8.192 1.344 16.416 2.688 24.672 3.424 10.816 0.96 20.448 1.44 29.44 1.44 49.312 0 84.896-14.912 111.904-46.944 30.72-36.448 40.864-80.256 46.72-118.304 2.24-14.432-1.472-31.648-9.056-41.856z m-116.608 165.024c-14.272 0-28.512-4.608-42.336-13.696l-1.696-1.12c-23.008-15.072-44.672-29.312-57.888-61.28l-4.256-10.272-30.816 29.76 9.184 15.04s6.368-0.384 7.168-0.384c1.664 0 2.816 0.096 3.552 0.256-0.32 1.088-1.184 3.04-3.04 6.176-4.16 7.104-8.48 14.144-12.96 21.536a121.376 121.376 0 0 1-2.688-6.656c-2.56-6.56-5.184-13.376-10.176-18.912-20.32-22.496-26.912-44.64-21.44-71.84 2.176-10.496-10.208-27.008-20.48-30.72-18.24-6.496-25.92-18.432-26.432-41.12-0.32-15.072-1.088-30.144-1.92-46.592l-1.6-32.096-8.384 1.44c-11.296 1.92-22.464 3.744-33.472 5.536-25.184 4.064-48.96 7.872-72.928 13.248-20.96 4.672-41.952 10.656-62.208 16.448-13.632 3.904-27.232 7.776-40.928 11.296a49.376 49.376 0 0 1-12.256 1.728c-11.52 0-20.64-5.472-28.704-17.28-22.464-32.8-46.72-65.12-70.176-96.32l-9.92-13.28c-12.992-17.344-16.096-36.032-9.376-57.184 7.744-24.416 19.008-34.816 37.76-34.816 5.76 0 12.448 0.96 19.84 2.912 10.048 2.688 20.224 6.08 30.08 9.376 7.936 2.688 15.904 5.376 24 7.68 5.312 1.6 10.656 2.048 15.808 2.528 2.144 0.16 4.288 0.352 6.4 0.64l6.368 0.8 5.312-18.112-55.424-29.44 7.648-6.976c11.136-10.24 21.632-19.936 31.52-30.496 11.52-12.224 24.128-18.208 38.592-18.208 7.2 0 14.944 1.504 23.008 4.512 28.64 10.656 54.08 21.44 77.888 32.896 20.576 9.92 41.184 20.736 61.12 31.232 14.368 7.552 28.8 15.104 43.264 22.4 32.416 16.32 54.72 39.872 68.064 72.032 5.664 13.632 13.632 26.176 21.376 38.336l5.632 8.896c2.56 4.16 6.176 7.136 9.376 9.792 1.248 0.96 2.464 1.984 3.552 3.04l4.544 4.288 13.6-9.92-6.4-15.136c-1.6-3.84-3.36-7.68-5.12-11.456-3.776-7.968-7.296-15.488-8.928-23.2-9.76-46.176-31.2-78.944-65.376-99.968 11.36-15.168 32.384-25.28 53.728-25.28 14.624 0 27.392 4.8 35.904 13.568 15.904 16.352 29.664 35.744 42.976 54.496 3.872 5.504 7.744 10.976 11.712 16.384 6.464 8.896 7.04 18.72 1.728 29.184a35.392 35.392 0 0 0-2.112 5.44l-0.64 2.08c-4.448 12.16-8.192 21.504-11.2 28.992-13.056 32.64-12.896 35.104 4.672 66.144 3.936 6.976 8.832 15.68 14.784 26.88l8.128 15.232c5.44 10.016 10.816 20.032 15.872 30.24 1.12 2.24 1.92 4.96 2.688 7.84l-25.28 1.632 10.336 27.008h-31.36l-1.92 18.912 14.304 2.624-13.984 23.424 32.096-10.208-7.456 23.072 16.992 9.728 28-50.752c5.536 4.992 12.224 9.024 20.16 9.024 8.896 0 17.696-4.896 28.928-16.16a19.84 19.84 0 0 1 0.128 5.376c-6.112 40.512-19.456 72.896-40.736 98.88-15.488 18.88-34.784 28.896-55.776 28.896z m-175.36 141.504l-7.52-2.336c2.24-0.384 4.48-0.64 6.72-0.864l0.8 3.2z m-176.448-317.184c-1.088-6.72 0.16-14.976 0.832-16.224 9.632-5.696 21.824-8.576 33.76-11.2 1.088 1.696 2.56 4.224 3.84 6.976 7.136 15.2 14.208 30.4 21.248 45.664 14.08 30.4 28.64 61.824 43.872 92.352 3.936 7.872 9.12 14.88 14.784 21.92-57.408-31.04-107.008-67.744-118.336-139.488z m-11.936 111.68c35.328 38.912 81.472 58.048 126.464 72.8 4.416 1.44 8.416 4.352 9.184 6.08a27.264 27.264 0 0 1 2.592 13.76 23.104 23.104 0 0 1-6.208 0.864 8.544 8.544 0 0 1-2.976-0.32 3718.24 3718.24 0 0 1-119.68-53.376 13.76 13.76 0 0 1-5.888-7.872 375.616 375.616 0 0 1-3.488-31.936z m57.472 124.928c31.168 8.576 60.576 16.704 90.4 25.824 2.144 0.64 4.96 4.192 7.488 7.456-3.36 2.304-6.848 4.576-9.504 4.896a140.672 140.672 0 0 1-15.456 0.864c-36.128 0-65.44-14.656-85.76-42.592l12.832 3.52z"  /><path fill="#4092BA" d="M726.496 336.32l-2.144-5.984-3.328-9.728c-6.592-19.584-13.408-39.776-31.84-54.4l-4.352-3.424-16.032 10.88 40.288 72.448 17.408-9.76z m-39.68 136.608c-27.2 0-41.664 11.264-46.944 36.48l-3.2 15.296 94.208-47.328-24.64-3.072a155.52 155.52 0 0 0-19.392-1.376z m-162.496-144c-11.2 0-23.072 1.888-35.136 5.6l-27.2 8.352 78.144 17.504-33.408 20.512 29.056-1.28 3.04-0.096c25.856 0 42.24 14.304 61.888 39.04l13.28-6.144c-10.112-52.256-43.648-83.52-89.664-83.52z m159.872 193.696c-7.072 0.032-13.056 4.256-18.368 8-1.856 1.312-3.744 2.656-5.6 3.744l-7.52 4.256 14.144 18.656-11.872 15.136h15.488l14.656 0.192c2.752 0 5.312-0.096 7.904-0.32 12.992-0.992 21.056-4.8 24.64-11.648 3.424-6.56 2.24-14.624-3.552-24.672-5.632-9.728-21.248-13.344-29.92-13.344z"  /></svg>