<?xml version="1.0" standalone="no"?><!DOCTYPE svg PUBLIC "-//W3C//DTD SVG 1.1//EN" "http://www.w3.org/Graphics/SVG/1.1/DTD/svg11.dtd"><svg class="icon" width="200px" height="200.00px" viewBox="0 0 1024 1024" version="1.1" xmlns="http://www.w3.org/2000/svg"><path fill="#4092BA" d="M771.904 470.336h-154.72v-154.24A28.192 28.192 0 0 0 589.12 288H316.096A28.192 28.192 0 0 0 288 316.128v273.408a28.192 28.192 0 0 0 28.096 28.128h154.72v154.24a28.192 28.192 0 0 0 28.064 28.096h273.024a28.192 28.192 0 0 0 28.096-28.128v-273.408a28.192 28.192 0 0 0-28.096-28.128z m-433.92 97.28v-229.568h229.216v132.288H498.88a28.192 28.192 0 0 0-28.064 28.16v69.12h-132.8z m412.032 182.336h-229.216v-131.584h69.024a28.192 28.192 0 0 0 28.096-28.128v-69.824h132.096v229.536z"  /></svg>