<?xml version="1.0" standalone="no"?><!DOCTYPE svg PUBLIC "-//W3C//DTD SVG 1.1//EN" "http://www.w3.org/Graphics/SVG/1.1/DTD/svg11.dtd"><svg class="icon" width="200px" height="200.00px" viewBox="0 0 1024 1024" version="1.1" xmlns="http://www.w3.org/2000/svg"><path fill="#4092BA" d="M458.048 598.656a118.944 118.944 0 0 1-33.984-34.144c-16.448-24.544-24.704-49.504-36.8-100.256l-1.28-5.472c-19.456-81.376-33.568-106.272-73.888-108.224a6.08 6.08 0 0 1-5.76-6.016V305.088c0-1.664 0.704-3.2 1.824-4.288a5.824 5.824 0 0 1 4.352-1.6c40.256 1.632 69.92 19.648 89.984 51.744 14.592 23.264 21.632 45.376 33.728 96.096l1.312 5.536c10.656 44.8 17.728 65.92 29.472 83.52 1.824 2.688 3.776 5.28 5.888 7.84 0.192 0.256 0.192 0.576 0 0.736a68.928 68.928 0 0 0-14.848 54.048v-0.064z m138.56 1.504a69.312 69.312 0 0 0-13.728-54.56c-0.192-0.256-0.192-0.576 0-0.736 2.432-2.88 4.704-5.856 6.688-8.96 11.488-17.856 17.824-38.4 28.288-84.864l0.576-2.976c11.712-52.48 18.592-75.104 33.472-99.104 20.544-33.088 51.2-51.616 93.376-53.248a5.632 5.632 0 0 1 4.288 1.632 6.016 6.016 0 0 1 1.792 4.256v36.864a8.96 8.96 0 0 1-8.192 8.864c-22.24 1.728-36.416 11.04-47.296 28.704-10.688 17.28-16.576 36.8-27.04 83.328l-0.576 2.88c-11.744 52.448-19.296 76.608-35.136 101.408-9.28 14.72-21.76 27.2-36.48 36.48l-0.064 0.032z m-298.56 86.144h445.696a10.88 10.88 0 0 1 10.944 10.816v30.304c0 5.632-4.608 10.24-10.304 10.24H250.528a17.408 17.408 0 0 1-17.376-17.376V300.8c0-5.632 4.608-10.24 10.336-10.24h31.04c5.728 0 10.336 4.608 10.336 10.24v372.16a13.216 13.216 0 0 0 13.152 13.344z m229.504-138.912c22.784 0 41.28 18.4 41.28 41.088 0 22.72-18.496 41.12-41.28 41.12a41.12 41.12 0 1 1 0-82.24z"  /></svg>