<?xml version="1.0" standalone="no"?><!DOCTYPE svg PUBLIC "-//W3C//DTD SVG 1.1//EN" "http://www.w3.org/Graphics/SVG/1.1/DTD/svg11.dtd"><svg class="icon" width="200px" height="200.00px" viewBox="0 0 1024 1024" version="1.1" xmlns="http://www.w3.org/2000/svg"><path fill="#4092BA" d="M540.384 538.88l121.984-121.952a18.72 18.72 0 0 0 0-27.104 18.72 18.72 0 0 0-27.104 0l-121.984 121.952-121.952-121.952a18.72 18.72 0 0 0-27.104 0 18.72 18.72 0 0 0 0 27.104l121.952 121.952-121.952 121.984a18.72 18.72 0 0 0 0 27.104 17.6 17.6 0 0 0 13.536 5.792 17.6 17.6 0 0 0 13.568-5.792l121.952-121.984 121.984 121.984a20.928 20.928 0 0 0 13.536 5.792c3.872 0 9.696-1.92 13.568-5.792a18.72 18.72 0 0 0 0-27.104l-121.984-121.984z"  /></svg>