<?xml version="1.0" encoding="UTF-8"?>
<svg width="32px" height="32px" viewBox="0 0 32 32" version="1.1" xmlns="http://www.w3.org/2000/svg" xmlns:xlink="http://www.w3.org/1999/xlink">
    <title>编组 23</title>
    <g id="页面-1" stroke="none" stroke-width="1" fill="none" fill-rule="evenodd">
        <g id="工作台首页-数据开发-图标组件" transform="translate(-256.000000, -181.000000)" fill-rule="nonzero">
            <g id="编组-23备份" transform="translate(235.000000, -67.000000)">
                <g id="编组-57备份" transform="translate(21.000000, 248.000000)">
                    <g id="编组备份-6" transform="translate(1.000000, 7.000000)">
                        <g id="excel" transform="translate(7.000000, 0.000000)" fill="#2988CC">
                            <path d="M12.22,2.59 L12.22,3.9 L18.27,3.9 L18.27,4.74 L12.22,4.74 L12.22,6.1 L18.27,6.1 L18.27,6.94 L12.22,6.94 L12.22,8.28 L18.27,8.28 L18.27,9.12 L12.22,9.12 L12.22,10.46 L18.27,10.46 L18.27,11.3 L12.22,11.3 L12.22,12.64 L18.27,12.64 L18.27,13.48 L12.22,13.48 L12.22,14.81 L18.27,14.81 L18.27,15.65 L12.22,15.65 L12.22,17.39 L20,17.39 L20,2.59 L12.22,2.59 L12.22,2.59 Z M0,17.87 L11.27,20 L11.27,0 L0,2.13 L0,17.87 Z M4.48,12.9 L2.73,12.9 L5.04,9.23 L2.84,5.7 L4.64,5.7 L5.92,8.04 L7.24,5.7 L8.98,5.7 L6.78,9.17 L9.12,12.9 L7.29,12.9 L5.92,10.45 L4.48,12.9 Z" id="形状"></path>
                        </g>
                        <path d="M0,19.6367449 C0,19.0742214 0.0937114673,18.5413015 0.281134402,18.037995 C0.468557337,17.5346852 0.728318627,17.0887372 1.06041924,16.7001521 C1.39251984,16.3115671 1.78216226,15.9951478 2.22934649,15.7508944 C2.67653071,15.5066409 3.15659679,15.3549073 3.66954377,15.2956947 C3.73530624,15.2734899 3.80435708,15.2623874 3.87669544,15.2623874 L5.44512947,15.2623874 L5.44512947,14.374193 C5.45170572,14.226161 5.50431566,14.1151367 5.60295931,14.0411201 C5.70160296,13.9671039 5.8298397,13.9930096 5.98766954,14.1188371 C6.03370328,14.1558452 6.12248285,14.2317122 6.2540074,14.3464369 C6.38553194,14.4611617 6.531854,14.5906904 6.69297164,14.735022 C6.85408928,14.8793536 7.0168513,15.025536 7.18125771,15.173568 C7.34566411,15.3216 7.48705302,15.4511288 7.6054254,15.5621531 C7.71064561,15.6583742 7.8027127,15.7545948 7.88162762,15.8508162 C7.96054254,15.9470373 8,16.0395576 8,16.128377 C8,16.2319996 7.96547472,16.3189691 7.89642417,16.3892841 C7.82737361,16.4595995 7.74352651,16.5391669 7.64488286,16.6279864 L7.15166461,17.0498787 C6.98068261,17.1905098 6.81792058,17.323739 6.66337855,17.4495662 C6.50883651,17.5753934 6.37237978,17.684568 6.2540074,17.7770879 C6.13563502,17.8696081 6.05014353,17.9306711 5.99753391,17.960278 C5.89889026,18.0268926 5.81504316,18.0694515 5.7459926,18.0879559 C5.67694205,18.10646 5.62104366,18.1046096 5.5782984,18.0824047 C5.53555285,18.0601998 5.50267157,18.0231918 5.47965475,17.9713804 C5.45663793,17.919569 5.44512947,17.8640569 5.44512947,17.804844 L5.44512947,16.9166495 L3.87669544,16.9166495 L3.82737361,16.9166495 C3.50513737,16.9536576 3.20591862,17.0480279 2.9297164,17.1997615 C2.65351418,17.3514951 2.41183724,17.5494881 2.20468557,17.7937415 C1.99753391,18.037995 1.83477189,18.3155557 1.71639951,18.6264238 C1.59802713,18.9372918 1.53884094,19.2703647 1.53884094,19.6256425 C1.53884094,20.0031251 1.6046034,20.3565521 1.73612824,20.6859246 C1.86765278,21.015297 2.04850012,21.3021095 2.27866831,21.5463629 C2.50883651,21.7906164 2.77846312,21.9849089 3.08754624,22.1292405 C3.39662935,22.2735721 3.72544216,22.3457379 4.07398274,22.3457379 L5.60295931,22.3346355 C5.70817952,22.3346355 5.81504316,22.3568403 5.92355117,22.4012501 C6.03205919,22.4456598 6.12741504,22.5048727 6.20961776,22.5788889 C6.29182077,22.6529052 6.35922761,22.7398742 6.41183724,22.839796 C6.46444715,22.9397179 6.49075216,23.0488915 6.49075216,23.1673177 C6.49075216,23.278342 6.46444715,23.3856659 6.41183724,23.4892882 C6.35922732,23.5929109 6.28853268,23.68173 6.19975339,23.7557465 C6.11097411,23.8297628 6.01233046,23.8889757 5.90382244,23.9333854 C5.79531443,23.9777951 5.68845079,24 5.58323058,24 L3.87669544,24 L3.78791615,24 C3.76161115,24 3.73201805,23.9962992 3.69913687,23.9888976 C3.17961332,23.9370862 2.69461891,23.7872031 2.24414303,23.5392491 C1.79367004,23.2912952 1.40238421,22.9730252 1.0702836,22.5844402 C0.738182992,22.1958551 0.47677732,21.7499071 0.286066584,21.2465973 C0.0953558493,20.7432875 0,20.2066693 0,19.6367449 L0,19.6367449 Z" id="路径" fill="#18B931" transform="translate(4.000000, 19.000000) scale(-1, -1) translate(-4.000000, -19.000000) "></path>
                    </g>
                </g>
            </g>
        </g>
    </g>
</svg>