<?xml version="1.0" standalone="no"?><!DOCTYPE svg PUBLIC "-//W3C//DTD SVG 1.1//EN" "http://www.w3.org/Graphics/SVG/1.1/DTD/svg11.dtd"><svg class="icon" width="200px" height="200.00px" viewBox="0 0 1024 1024" version="1.1" xmlns="http://www.w3.org/2000/svg"><path d="M288 779.616c0 18.016-3.008 35.072-8.992 51.168-6.016 16.096-14.304 30.4-24.96 42.816a132.16 132.16 0 0 1-37.376 30.4 125.184 125.184 0 0 1-46.08 14.528 20.576 20.576 0 0 1-6.656 1.088H113.76v28.416c-0.224 4.736-1.92 8.288-5.056 10.656-3.168 2.368-7.264 1.536-12.32-2.496a1431.68 1431.68 0 0 1-22.56-19.712c-5.152-4.608-10.368-9.28-15.616-14.048a921.44 921.44 0 0 1-13.568-12.416 89.6 89.6 0 0 1-8.864-9.248 14.24 14.24 0 0 1-3.776-8.864c0-3.328 1.12-6.112 3.328-8.352 2.208-2.24 4.864-4.8 8.032-7.648l15.776-13.504 15.648-12.8c4.928-4 9.28-7.52 13.088-10.464 3.776-2.976 6.528-4.928 8.192-5.856a28.48 28.48 0 0 1 8.064-4.096c2.24-0.576 4-0.544 5.376 0.192a7.04 7.04 0 0 1 3.136 3.52 12.992 12.992 0 0 1 1.12 5.344v28.416h51.776c10.304-1.184 19.872-4.192 28.704-9.056a81.92 81.92 0 0 0 23.2-19.008 89.088 89.088 0 0 0 21.312-58.624c0-12.064-2.112-23.36-6.304-33.92a84.128 84.128 0 0 0-43.232-46.176 73.696 73.696 0 0 0-31.584-6.944l-48.928 0.352a26.944 26.944 0 0 1-10.24-2.112 29.824 29.824 0 0 1-15.616-14.048 22.496 22.496 0 0 1 0-20.8 26.752 26.752 0 0 1 6.752-8.512c2.848-2.368 6.016-4.256 9.472-5.664a26.944 26.944 0 0 1 10.24-2.144H166.848c0.8 0 1.76 0.128 2.816 0.352a120.32 120.32 0 0 1 46.56 14.4c14.4 7.936 26.944 18.112 37.568 30.56A144.16 144.16 0 0 1 288 779.648z" fill="#18B931" /><path d="M294.4 531.2L224 415.584l70.4-115.648h140.8l70.4 115.648-70.4 115.616H294.4z m281.6 0l-70.4-115.616L576 299.936h140.8l70.4 115.648-70.4 115.616H576z m-140.8 231.264l-70.4-115.616 70.4-115.648H576l70.4 115.648-70.4 115.616h-140.8z" fill="#2988CC" /></svg>