<?xml version="1.0" standalone="no"?><!DOCTYPE svg PUBLIC "-//W3C//DTD SVG 1.1//EN" "http://www.w3.org/Graphics/SVG/1.1/DTD/svg11.dtd"><svg class="icon" width="200px" height="200.00px" viewBox="0 0 1024 1024" version="1.1" xmlns="http://www.w3.org/2000/svg"><path d="M724.48 690.048a282.24 282.24 0 0 0 66.72-182.464c0-156.32-127.264-283.584-283.616-283.584C351.264 224 224 351.264 224 507.584c0 156.352 127.264 283.616 283.584 283.616 83.2 0 158.144-36.032 210.048-93.248l1.856 1.056 5.024-8.96z m-216.896-286.144c19.744 0 39.36-1.216 58.72-3.616 6.944 32.64 11.008 66.752 11.84 101.664h-136.896c0.832-34.72 4.8-68.672 11.68-101.184a465.6 465.6 0 0 0 54.656 3.136z m-48.192-30.08c11.616-42.912 28.544-82.784 50.24-117.856a443.136 443.136 0 0 1 50.144 117.344 454.272 454.272 0 0 1-100.384 0.48z m146.304 128.128a581.184 581.184 0 0 0-12.096-105.856 450.08 450.08 0 0 0 120.256-40.096 254.624 254.624 0 0 1 49.76 145.952h-157.92z m-192 0H251.648a254.624 254.624 0 0 1 49.76-145.952 449.92 449.92 0 0 0 124.224 40.832 572.256 572.256 0 0 0-11.936 105.12z m0 27.584c0.736 32.16 4.096 63.936 9.952 94.72-41.728 7.488-81.92 20.64-119.2 38.976a254.624 254.624 0 0 1-51.904-133.632h161.152v-0.064z m27.552 0h136.896a551.36 551.36 0 0 1-9.76 91.072 481.632 481.632 0 0 0-60.8-3.904c-19.04 0-37.952 1.152-56.64 3.36a543.936 543.936 0 0 1-9.696-90.56z m164.48 0h156.928a254.624 254.624 0 0 1-51.904 133.632 451.712 451.712 0 0 0-115.168-38.208c5.92-30.944 9.376-62.976 10.112-95.424z m90.048-195.392c-34.048 16.416-70.624 28.16-108.576 35.072-11.008-41.6-26.752-80.64-46.816-115.584a255.904 255.904 0 0 1 155.392 80.512zM479.264 253.12a477.664 477.664 0 0 0-47.36 116.8 421.792 421.792 0 0 1-112.544-35.84 255.904 255.904 0 0 1 159.904-80.96zM323.008 684.8a424.8 424.8 0 0 1 106.432-33.6c9.472 39.04 23.04 76.032 40.288 109.568a255.68 255.68 0 0 1-146.72-75.968z m179.552 78.72c-19.936-34.88-35.264-74.336-45.696-116.32a444.672 444.672 0 0 1 105.536 0.48 456.32 456.32 0 0 1-45.6 115.776c-3.072 0.128-6.112 0.128-9.216 0.128-1.632 0-3.36 0-5.024-0.064z m47.36-3.424c16.992-33.216 30.4-69.728 39.84-108.224 35.744 6.656 70.176 17.728 102.4 32.928a256.096 256.096 0 0 1-142.208 75.296z" fill="#2988CC" /><path d="M288 811.616c0 18.016-3.008 35.072-8.992 51.168-6.016 16.096-14.304 30.4-24.96 42.816a132.16 132.16 0 0 1-37.376 30.4 125.184 125.184 0 0 1-46.08 14.528 20.576 20.576 0 0 1-6.656 1.088H113.76v28.416c-0.224 4.736-1.92 8.288-5.056 10.656-3.168 2.368-7.264 1.536-12.32-2.496a1431.68 1431.68 0 0 1-22.56-19.712c-5.152-4.608-10.368-9.28-15.616-14.048a921.44 921.44 0 0 1-13.568-12.416 89.6 89.6 0 0 1-8.864-9.248 14.24 14.24 0 0 1-3.776-8.864c0-3.328 1.12-6.112 3.328-8.352 2.208-2.24 4.864-4.8 8.032-7.648l15.776-13.504 15.648-12.8c4.928-4 9.28-7.52 13.088-10.464 3.776-2.976 6.528-4.928 8.192-5.856a28.48 28.48 0 0 1 8.064-4.096c2.24-0.576 4-0.544 5.376 0.192a7.04 7.04 0 0 1 3.136 3.52 12.992 12.992 0 0 1 1.12 5.344v28.416h51.776c10.304-1.184 19.872-4.192 28.704-9.056a81.92 81.92 0 0 0 23.2-19.008 89.088 89.088 0 0 0 21.312-58.624c0-12.064-2.112-23.36-6.304-33.92a84.128 84.128 0 0 0-43.232-46.176 73.696 73.696 0 0 0-31.584-6.944l-48.928 0.352a26.944 26.944 0 0 1-10.24-2.112 29.824 29.824 0 0 1-15.616-14.048 22.496 22.496 0 0 1 0-20.8 26.752 26.752 0 0 1 6.752-8.512c2.848-2.368 6.016-4.256 9.472-5.664a26.944 26.944 0 0 1 10.24-2.144H166.848c0.8 0 1.76 0.128 2.816 0.352a120.32 120.32 0 0 1 46.56 14.4c14.4 7.936 26.944 18.112 37.568 30.56A144.16 144.16 0 0 1 288 811.648z" fill="#18B931" /></svg>