<?xml version="1.0" standalone="no"?><!DOCTYPE svg PUBLIC "-//W3C//DTD SVG 1.1//EN" "http://www.w3.org/Graphics/SVG/1.1/DTD/svg11.dtd"><svg class="icon" width="200px" height="200.00px" viewBox="0 0 1024 1024" version="1.1" xmlns="http://www.w3.org/2000/svg"><path fill="#4092BA" d="M636.16 720.64a87.744 87.744 0 0 1 87.296-87.296 87.744 87.744 0 0 1 87.296 87.296 87.744 87.744 0 0 1-87.296 87.296 87.744 87.744 0 0 1-87.296-87.296z m47.872 0c0 22.528 16.896 39.424 39.424 39.424s39.424-16.896 39.424-39.424-16.896-39.424-39.424-39.424-39.424 16.896-39.424 39.424z"  /><path fill="#4092BA" d="M286.976 743.168H636.16a19.264 19.264 0 0 0 19.712-19.712 19.264 19.264 0 0 0-19.712-19.712H286.976a19.264 19.264 0 0 0-19.712 19.712c-2.816 11.264 8.448 19.712 19.712 19.712z m64.768-301.312a87.744 87.744 0 0 1-87.296-87.296 87.744 87.744 0 0 1 87.296-87.296 87.744 87.744 0 0 1 87.296 87.296 87.744 87.744 0 0 1-87.296 87.296z m0-126.72c-19.712 0-39.424 19.712-39.424 39.424s16.896 39.424 39.424 39.424 39.424-16.896 39.424-39.424-16.896-39.424-39.424-39.424z"  /><path fill="#4092BA" d="M788.224 379.904H441.856a19.264 19.264 0 0 1-19.712-19.712c0-11.264 8.448-19.712 19.712-19.712H791.04c11.264 0 19.712 8.448 19.712 19.712s-11.264 19.712-22.528 19.712z m-233.728 261.888a103.936 103.936 0 0 1-104.192-104.192c0-56.32 47.872-104.192 104.192-104.192 56.32 0 104.192 47.872 104.192 104.192a103.936 103.936 0 0 1-104.192 104.192z m0-152.064c-25.344 0-47.872 22.528-47.872 47.872s22.528 47.872 47.872 47.872 47.872-22.528 47.872-47.872-19.712-47.872-47.872-47.872z"  /><path fill="#4092BA" d="M793.856 562.944h-149.248a19.264 19.264 0 0 1-19.712-19.712c0-11.264 8.448-19.712 19.712-19.712h149.248c11.264 0 19.712 8.448 19.712 19.712a19.264 19.264 0 0 1-19.712 19.712z m-323.84 0H281.344a19.264 19.264 0 0 1-19.712-19.712c0-11.264 8.448-19.712 19.712-19.712h188.672c11.264 0 19.712 8.448 19.712 19.712a19.264 19.264 0 0 1-19.712 19.712z"  /></svg>