<?xml version="1.0" standalone="no"?><!DOCTYPE svg PUBLIC "-//W3C//DTD SVG 1.1//EN" "http://www.w3.org/Graphics/SVG/1.1/DTD/svg11.dtd"><svg class="icon" width="200px" height="200.00px" viewBox="0 0 1024 1024" version="1.1" xmlns="http://www.w3.org/2000/svg"><path d="M0 1045.33333317m102.4 0l819.2 0q102.4 0 102.4 102.4l0 819.2q0 102.4-102.4 102.4l-819.2 0q-102.4 0-102.4-102.4l0-819.2q0-102.4 102.4-102.4Z" fill="#CDEAFF" /><path d="M735.616 556.544h-219.648a10.816 10.816 0 0 1-10.784-10.816V319.904a10.784 10.784 0 0 0-11.072-10.816 241.472 241.472 0 0 0-228.128 269.12c12.256 109.696 101.12 199.04 210.88 211.808a241.344 241.344 0 0 0 269.472-222.08 10.688 10.688 0 0 0-10.72-11.392z" fill="#2988CC" /><path d="M561.696 265.024c-8.192-0.544-11.008 6.4-11.008 10.72v226.048c0 5.92 4.8 10.752 10.72 10.752h220.352c7.68 0 10.944-4.48 10.944-10.944a241.536 241.536 0 0 0-231.04-236.576z" fill="#74C0F6" /></svg>