<?xml version="1.0" encoding="UTF-8"?>
<svg width="32px" height="32px" viewBox="0 0 32 32" version="1.1" xmlns="http://www.w3.org/2000/svg" xmlns:xlink="http://www.w3.org/1999/xlink">
    <title>编组 23</title>
    <g id="页面-1" stroke="none" stroke-width="1" fill="none" fill-rule="evenodd">
        <g id="工作台首页-数据开发-图标组件" transform="translate(-255.000000, -519.000000)" fill="#2988CC" fill-rule="nonzero">
            <g id="编组-23备份" transform="translate(235.000000, -67.000000)">
                <g id="+" transform="translate(20.000000, 586.000000)">
                    <g id="-_python执行器" transform="translate(7.000000, 7.000000)">
                        <path d="M11.7807538,16.8377347 L11.7807538,16.8377346 C11.7807538,17.2715002 12.1323892,17.6231355 12.5661547,17.6231355 C12.9999203,17.6231355 13.3515556,17.2715002 13.3515556,16.8377346 C13.3515556,16.8377346 13.3515556,16.8377346 13.3515556,16.8377346 L13.3515556,16.8377345 C13.3515556,16.403969 12.9999203,16.0523336 12.5661547,16.0523336 C12.1323892,16.0523336 11.7807538,16.403969 11.7807538,16.8377345 C11.7807538,16.8377346 11.7807538,16.8377346 11.7807538,16.8377346 L11.7807538,16.8377347 Z" id="路径"></path>
                        <path d="M6.93239505,3.56315988 L6.93239505,3.56316 C6.93239505,3.99692556 7.28403039,4.34856091 7.71779596,4.34856091 C8.15156153,4.34856091 8.50319688,3.99692556 8.50319688,3.56316 L8.50319688,3.56315997 C8.50319688,3.12939441 8.15156153,2.77775906 7.71779596,2.77775906 C7.28403039,2.77775906 6.93239505,3.12939441 6.93239505,3.56315997 C6.93239505,3.56315999 6.93239505,3.56316 6.93239505,3.56316002 L6.93239505,3.56315988 Z" id="路径"></path>
                        <path d="M16.6356095,15.0679358 L9.74169519,15.0679358 C9.40939168,15.0679358 9.14013199,14.7986761 9.14013199,14.4663726 C9.14013199,14.1340691 9.40939168,13.8648094 9.74169519,13.8648094 L16.6356095,13.8648094 C17.6342044,13.8648094 18.4467959,13.0522178 18.4467959,12.0536229 L18.4467959,8.00702755 C18.4467959,7.00843264 17.6342044,6.19584107 16.6356095,6.19584107 L14.7156604,6.19584107 C14.3833568,6.19584107 14.1140972,5.92658138 14.1140972,5.59427787 C14.1140972,5.26197435 14.3833568,4.99271467 14.7156604,4.99271467 L16.6356095,4.99271467 C18.2976083,4.99271467 19.6499223,6.34502874 19.6499223,8.00702755 L19.6499223,12.0536229 C19.6499223,13.7156217 18.2976083,15.0679358 16.6356095,15.0679358 Z M5.34499008,15.0679358 L3.42504097,15.0679358 C1.76304216,15.0679358 0.410728084,13.7156217 0.410728084,12.0536229 L0.410728084,8.00702755 C0.410728084,6.34502874 1.76304216,4.99271467 3.42504097,4.99271467 L10.3189552,4.99271467 C10.6512588,4.99271467 10.9205184,5.26197435 10.9205184,5.59427787 C10.9205184,5.92658138 10.6512588,6.19584107 10.3189552,6.19584107 L3.42504097,6.19584107 C2.42644606,6.19584107 1.61385448,7.00843264 1.61385448,8.00702755 L1.61385448,12.0536229 C1.61385448,13.0522178 2.42644606,13.8648094 3.42504097,13.8648094 L5.34499008,13.8648094 C5.67729359,13.8648094 5.94655328,14.1340691 5.94655328,14.4663726 C5.94655328,14.7986761 5.67705296,15.0679358 5.34499008,15.0679358 Z" id="形状"></path>
                        <path d="M12.0377416,19.6499223 L8.02266819,19.6499223 C6.35200687,19.6499223 4.99271467,18.2906301 4.99271467,16.6199688 L4.99271467,12.3770233 C4.99271467,10.7513589 6.31543183,9.4286417 7.94109622,9.4286417 L12.1195542,9.4286417 C13.0818147,9.4286417 13.8648094,8.64564704 13.8648094,7.68338655 L13.8648094,3.44068161 C13.8648094,2.43342419 13.0452397,1.61385448 12.0379822,1.61385448 L8.02266819,1.61385448 C7.01541077,1.61385448 6.19584107,2.43342419 6.19584107,3.44068161 L6.19584107,5.34499008 C6.19584107,5.67729359 5.92658138,5.94655328 5.59427787,5.94655328 C5.26197435,5.94655328 4.99271467,5.67729359 4.99271467,5.34499008 L4.99271467,3.44068161 C4.99271467,1.77002029 6.35200687,0.410728084 8.02266819,0.410728084 L12.0377416,0.410728084 C13.7084029,0.410728084 15.0676951,1.77002029 15.0676951,3.44068161 L15.0676951,7.68338655 C15.0676951,9.30905094 13.744978,10.6317681 12.1193136,10.6317681 L7.94109622,10.6317681 C6.97883573,10.6317681 6.19584107,11.4147628 6.19584107,12.3770233 L6.19584107,16.6197282 C6.19584107,17.6269856 7.01541077,18.4465553 8.02266819,18.4465553 L12.0377416,18.4465553 C13.044999,18.4465553 13.8645687,17.6269856 13.8645687,16.6197282 L13.8645687,14.7154197 C13.8645687,14.3831162 14.1338284,14.1138565 14.4661319,14.1138565 C14.7984355,14.1138565 15.0676951,14.3831162 15.0676951,14.7154197 L15.0676951,16.6197282 C15.0679358,18.2906301 13.7086436,19.6499223 12.0377416,19.6499223 L12.0377416,19.6499223 Z" id="路径"></path>
                    </g>
                </g>
            </g>
        </g>
    </g>
</svg>