<?xml version="1.0" encoding="UTF-8"?>
<svg width="32px" height="32px" viewBox="0 0 32 32" version="1.1" xmlns="http://www.w3.org/2000/svg" xmlns:xlink="http://www.w3.org/1999/xlink">
    <title>编组 23</title>
    <g id="页面-1" stroke="none" stroke-width="1" fill="none" fill-rule="evenodd">
        <g id="工作台首页-数据开发-图标组件" transform="translate(-255.000000, -410.000000)" fill="#2988CC" fill-rule="nonzero">
            <g id="编组-23备份" transform="translate(235.000000, -67.000000)">
                <g id="yuanzi" transform="translate(20.000000, 477.000000)">
                    <g id="重命名" transform="translate(8.000000, 7.000000)">
                        <path d="M10.4832808,0.241892597 L13.7832911,3.54190288 L13.7832911,3.5419029 C14.1054262,3.86348892 14.105869,4.38532974 13.784282,4.70746297 C13.783952,4.70779356 13.7836216,4.70812388 13.783291,4.70845391 L4.70828692,13.783458 L4.70828696,13.783458 C4.55375996,13.9384175 4.34385245,14.0254089 4.12501193,14.0251831 L0.825001641,14.0251831 L0.825001605,14.0251831 C0.369367109,14.0251831 0,13.6558175 0,13.200181 L0,9.90017074 C0,9.68154484 0.0866251008,9.47116959 0.241724637,9.3168957 L9.31672875,0.241891587 L9.31672875,0.241891588 C9.63831477,-0.0802435721 10.1601556,-0.0806863656 10.4822888,0.24090062 C10.4826194,0.241230662 10.4829497,0.241560984 10.4832798,0.241891586 L10.4832808,0.241892597 Z M15.6750054,16.5001865 L15.6750054,16.5001865 C16.1306399,16.5002563 16.4998794,16.8696793 16.4998794,17.3253138 C16.4998794,17.7808497 16.1305413,18.1501182 15.6750054,18.1501878 L0.824988123,18.1501878 L0.82498811,18.1501878 C0.369353615,18.150118 0.000114123188,17.7806969 0.000114123188,17.3250605 C0.000114123188,16.8695246 0.369452229,16.5002561 0.82498811,16.5001865 L15.6750054,16.5001865 L15.6750054,16.5001865 Z M9.8999922,1.99171963 L1.64997615,10.2417357 L1.64997615,12.3751882 L3.78342864,12.3751882 L12.0334447,4.12517212 L9.8999922,1.99171963 Z" id="形状"></path>
                    </g>
                </g>
            </g>
        </g>
    </g>
</svg>