<?xml version="1.0" encoding="UTF-8"?>
<svg width="32px" height="32px" viewBox="0 0 32 32" version="1.1" xmlns="http://www.w3.org/2000/svg" xmlns:xlink="http://www.w3.org/1999/xlink">
    <title>编组 23</title>
    <g id="页面-1" stroke="none" stroke-width="1" fill="none" fill-rule="evenodd">
        <g id="工作台首页-数据开发-图标组件" transform="translate(-343.000000, -301.000000)" fill="#2988CC" fill-rule="nonzero">
            <g id="编组-23备份" transform="translate(235.000000, -67.000000)">
                <g id="常量备份" transform="translate(108.000000, 368.000000)">
                    <g id="SN号采集" transform="translate(6.000000, 7.000000)">
                        <path d="M19.0127186,14.4885336 L19.0127186,14.4885336 C18.6724164,14.4885336 18.396546,14.7644041 18.396546,15.1047062 L18.396546,17.5483419 L18.396546,17.5483491 C18.3959511,18.0088285 18.0229924,18.3820684 17.5625151,18.3830116 L15.1182349,18.3830116 L15.1182349,18.3830116 C14.7779327,18.3830116 14.5020623,18.658882 14.5020623,18.9991842 C14.5020623,19.3394863 14.7779327,19.6153568 15.1182349,19.6153568 L17.5625151,19.6153568 L17.5625151,19.6153568 C18.7037235,19.6141726 19.6285603,18.6893362 19.6297441,17.5481278 L19.6297441,15.104707 L19.6297441,15.1047064 C19.6297441,14.7644042 19.3538736,14.4885336 19.0135715,14.4885336 C19.0132848,14.4885336 19.0129982,14.4885336 19.0127115,14.4885336 L19.0127186,14.4885336 Z M17.5625216,0.361681272 L15.1182414,0.361681272 L15.1182414,0.361681272 C14.7779392,0.361681272 14.5020688,0.63755171 14.5020688,0.977853864 C14.5020688,1.31815602 14.7779392,1.59402646 15.1182414,1.59402646 L17.5625216,1.59402646 L17.5625216,1.59402646 C18.0232503,1.59461829 18.3965997,1.96796673 18.3971905,2.4286954 L18.3971905,4.8725459 L18.3971905,4.87254599 C18.3971906,5.21284814 18.673061,5.48871858 19.0133631,5.48871858 C19.3536653,5.48871858 19.6295357,5.21284814 19.6295357,4.87254599 L19.6295357,2.42891033 L19.6295357,2.42890208 C19.628229,1.28782692 18.7035882,0.363097527 17.562513,0.361681272 L17.5625216,0.361681272 Z M0.991389036,5.48828938 L0.991389009,5.48828938 C1.33169116,5.48828938 1.6075616,5.21241836 1.6075616,4.87211621 C1.6075616,4.87211621 1.6075616,4.87211621 1.6075616,4.87211621 L1.6075616,2.42891024 L1.60756161,2.42890407 C1.60815683,1.96817541 1.98150618,1.59483025 2.44223699,1.59424158 L4.88673203,1.59424158 L4.886732,1.59424158 C5.22703415,1.59424159 5.50290459,1.31837114 5.50290459,0.978068985 C5.50290459,0.637766831 5.22703415,0.361896393 4.886732,0.361896393 L2.44245181,0.361896393 L2.44245189,0.361896393 C1.30129295,0.3630801 0.3764282,1.28775157 0.375008078,2.42891052 L0.375008078,4.87254617 L0.375008078,4.87254214 C0.375243038,5.2127605 0.651172853,5.48840536 0.991391217,5.48828938 L0.991389036,5.48828938 Z M4.8867256,18.3830108 L2.44244541,18.3830108 L2.44244544,18.3830108 C1.98166736,18.3825372 1.60824915,18.00912 1.6077765,17.5483419 L1.6077765,15.1047062 L1.6077765,15.1047062 C1.6077765,14.7644041 1.33190606,14.4885336 0.991603904,14.4885336 C0.65130175,14.4885336 0.375431308,14.7644041 0.375431308,15.1047062 L0.375431308,17.5483419 L0.375431308,17.5483381 C0.376613418,18.6895465 1.30144762,19.6143854 2.44265598,19.6155714 L4.88672132,19.6155714 L4.8867213,19.6155714 C5.22702345,19.6155714 5.50289389,19.3397009 5.50289389,18.9993988 C5.50289389,18.6590966 5.22702345,18.3832262 4.8867213,18.3832262 L4.8867256,18.3830108 Z M8.62092916,9.70975856 C8.38460076,9.60233656 7.9678034,9.48180907 7.34690424,9.3413011 C6.58829008,9.1694259 6.35862184,9.03708199 6.2866491,8.97262879 C6.17127788,8.86928883 6.1147739,8.74059727 6.1147739,8.57924943 C6.1147739,8.38997186 6.19856306,8.23077246 6.37065311,8.09284261 C6.55004785,7.94911198 6.85147398,7.87627986 7.26719712,7.87627986 C7.66422883,7.87627986 7.96415106,7.95727605 8.15858488,8.1166903 C8.3530187,8.27610454 8.46280398,8.50835091 8.49739386,8.82889816 L8.5122181,8.96575378 L9.5005005,8.89141776 L9.4951294,8.75434729 L9.4951294,8.75434741 C9.48528856,8.41276264 9.3811929,8.08054721 9.1943478,7.79442442 C9.00786321,7.51040065 8.73887852,7.29297852 8.39512812,7.14795882 C8.06018633,7.00680631 7.67002962,6.93504842 7.23497052,6.93504842 C6.83901303,6.93504842 6.4731337,7.00336881 6.14721535,7.13786115 C5.81184387,7.27643553 5.55209747,7.48397484 5.37571055,7.75424859 L5.37571057,7.75424856 C5.20294742,8.0133139 5.11070264,8.31770703 5.11059307,8.62909333 L5.11059306,8.62909488 C5.10773821,8.90378582 5.18404006,9.17348809 5.33037847,9.40597078 C5.47518333,9.63520933 5.69561327,9.82835409 5.98500814,9.98003395 C6.20522324,10.0969091 6.5717471,10.2163624 7.10563444,10.3441945 C7.61438503,10.4664408 7.94545964,10.5568901 8.09090903,10.6133941 C8.30081161,10.693316 8.45055788,10.789781 8.53628064,10.899996 L8.53628065,10.899996 C8.61958083,11.0072571 8.66329363,11.1399896 8.6600308,11.2757581 L8.66003081,11.2757645 C8.66037133,11.4196242 8.6138357,11.5596787 8.5274682,11.6747276 C8.43809309,11.7986926 8.29608121,11.8990247 8.10529974,11.9731459 C7.90506513,12.0509195 7.66895157,12.0902359 7.40383408,12.0902359 C7.10477123,12.0902359 6.83299357,12.0380288 6.59623548,11.9349037 C6.36656724,11.8350012 6.1964108,11.7048058 6.09070755,11.5481845 C5.98328555,11.3874812 5.91195734,11.1752153 5.88166434,10.9176174 L5.86555104,10.7807617 L4.89187803,10.8666993 L4.89553038,11.0005471 C4.90648742,11.4020906 5.0182063,11.7675402 5.22810889,12.0870132 C5.43801148,12.4064863 5.73234776,12.6509787 6.1012349,12.8099633 C6.46195798,12.9655104 6.91205616,13.0443581 7.4386388,13.0443581 C7.85930336,13.0443581 8.2443038,12.9657252 8.58311279,12.8106078 C8.92793741,12.6526975 9.1969221,12.4271113 9.38276216,12.1400797 L9.38276219,12.1400797 C9.56427959,11.8661127 9.66139338,11.544893 9.66205939,11.2162505 C9.66205939,10.8866798 9.57612179,10.5906247 9.40424659,10.3353901 C9.23237139,10.0801554 8.97112109,9.87111218 8.62092537,9.70976434 L8.62092916,9.70975856 Z M15.1111516,7.03065388 L14.1123418,7.03065388 L14.1123418,11.126225 L11.3724363,7.03065388 L10.3899547,7.03065388 L10.3899547,12.9465983 L11.3887644,12.9465983 L11.3887644,8.84758958 L14.1286699,12.9465983 L15.1111516,12.9465983 L15.1111516,7.03065388 Z" id="形状"></path>
                    </g>
                </g>
            </g>
        </g>
    </g>
</svg>