<?xml version="1.0" standalone="no"?><!DOCTYPE svg PUBLIC "-//W3C//DTD SVG 1.1//EN" "http://www.w3.org/Graphics/SVG/1.1/DTD/svg11.dtd"><svg class="icon" width="200px" height="200.00px" viewBox="0 0 1024 1024" version="1.1" xmlns="http://www.w3.org/2000/svg"><path fill="#4092BA" d="M442.176 298.08a19.776 19.776 0 0 0-19.776 19.84v407.584l-101.152-90.88a19.744 19.744 0 1 0-26.464 29.44l134.208 120.512a19.584 19.584 0 0 0 12.864 5.056h0.384a19.584 19.584 0 0 0 15.232-7.136 19.712 19.712 0 0 0 4.576-12.736V317.92a19.84 19.84 0 0 0-19.84-19.84z m273.28 124.928l-134.176-119.84a19.776 19.776 0 0 0-27.2 0.8l-1.12 1.28a19.712 19.712 0 0 0-4.64 12.768v451.84a19.776 19.776 0 1 0 39.616 0V362.144l101.184 90.368a19.776 19.776 0 1 0 26.368-29.472z"  /></svg>