<?xml version="1.0" standalone="no"?><!DOCTYPE svg PUBLIC "-//W3C//DTD SVG 1.1//EN" "http://www.w3.org/Graphics/SVG/1.1/DTD/svg11.dtd"><svg class="icon" width="200px" height="200.00px" viewBox="0 0 1024 1024" version="1.1" xmlns="http://www.w3.org/2000/svg"><path fill="#4092BA" d="M817.952 555.776V373.76c0-14.464-9.344-30.336-23.04-38.464L551.232 198.08a46.656 46.656 0 0 0-46.08 0l-244.064 137.6c-13.344 8.096-22.688 24-22.688 38.432v182.016H224v173.92h110.528l170.624 96.64 0.32 0.384c6.496 3.168 14.4 4.928 22.336 4.928 8.32 0 16.224-1.76 22.336-4.928l169.92-96.64H832V556.48h-14.048v-0.704z m-286.88-320.64h2.496l227.168 128.032-228.224 123.84-228.224-123.488 226.784-128.384z m-244.064 168.96l223.168 120.32v31.36H287.04v-151.68z m151.552 292.096a48.448 48.448 0 0 1-35.296 15.168c-15.104 0-27.008-3.52-35.648-9.888-12.576-9.504-15.84-24.672-16.896-38.432l-0.736-8.128h27.712l1.088 6.336c1.44 9.92 3.616 14.816 7.2 17.28l0.352 0.384a25.76 25.76 0 0 0 17.28 5.28c8.32 0 14.08-1.408 17.664-4.224l0.704-0.352a9.632 9.632 0 0 0 4.32-9.184 14.144 14.144 0 0 0-7.552-11.648l-0.736-0.32c-1.056-0.736-5.76-2.144-9.696-3.552a180.448 180.448 0 0 1-12.608-4.224c-10.08-3.2-18.016-6.72-22.688-8.832-1.44-0.704-2.528-1.056-3.232-1.408l-0.736-0.352a31.68 31.68 0 0 1-16.896-30.336 35.104 35.104 0 0 1 14.752-29.632 55.36 55.36 0 0 1 33.12-9.888c15.104 0 25.92 3.904 34.912 12 8.992 8.128 14.752 20.48 15.136 33.152l0.32 7.424h-26.976l-1.088-6.016c-1.44-7.744-3.2-12.672-6.464-15.168a25.92 25.92 0 0 0-15.84-5.28h-0.736a40.96 40.96 0 0 0-15.84 3.2 9.088 9.088 0 0 0-3.936 8.096v0.704c0 3.2 1.792 5.632 3.936 6.72l1.088 0.32c6.112 2.848 12.256 4.96 18.72 6.368h0.352c10.464 2.816 20.544 6.72 30.24 11.648 11.168 5.984 18.368 18.688 18.016 32.096 0 12.352-5.056 21.152-13.312 30.688z m72 80.064l-78.496-46.56h78.464v46.56z m43.904 0v-46.56h82.08l-82.08 46.56z m38.144-76.544l2.528 4.576-18.368 20.128-5.024-9.184c-1.792-2.816-3.616-5.632-5.76-8.448a51.584 51.584 0 0 1-3.232-4.608c-8.64 4.608-18.016 7.04-27.744 7.04h-2.496c-10.816 0.384-21.6-3.168-30.624-9.856a95.68 95.68 0 0 1-12.96-10.944l-0.32-0.32c-10.464-12.736-15.872-30.016-15.872-50.112 0-21.888 5.056-37.76 16.192-50.08 3.616-4.608 8.32-8.48 13.696-11.648 9.344-4.96 19.072-8.128 28.8-9.536h3.584c19.84 0 34.944 7.04 45.024 21.184 10.432 12.672 15.808 29.984 15.808 49.728a83.264 83.264 0 0 1-13.664 46.912c3.968 4.576 7.2 9.888 10.432 15.168z m26.656 2.464v-133.344h28.064v106.56l65.888 3.52v23.264h-93.952z m158.72-146.4h-223.168v-31.36l223.2-120.32v151.68z m-244.768 38.464h-2.144a35.872 35.872 0 0 0-21.248 10.56l-0.736 0.736c-6.08 9.504-9.344 20.8-8.96 32.448v0.704a53.12 53.12 0 0 0 8.96 32.096l1.44 1.76c5.056 6.368 12.256 10.24 19.84 9.888h2.88c4.288 0 8.64-0.704 12.928-2.464a188.288 188.288 0 0 0-12.96-16.576l-4.32-4.96 18.368-19.744 5.408 7.04c2.88 3.52 5.376 6.72 8.256 9.92 1.44 1.728 2.88 3.136 3.968 4.896 2.176-5.984 3.232-13.024 3.232-21.504a54.176 54.176 0 0 0-8.96-32.448 33.664 33.664 0 0 0-25.92-12.352z"  /></svg>