<?xml version="1.0" standalone="no"?><!DOCTYPE svg PUBLIC "-//W3C//DTD SVG 1.1//EN" "http://www.w3.org/Graphics/SVG/1.1/DTD/svg11.dtd"><svg class="icon" width="200px" height="200.00px" viewBox="0 0 1024 1024" version="1.1" xmlns="http://www.w3.org/2000/svg"><path fill="#4092BA" d="M586.08 693.856l-47.232-123.168h-177.12L317.44 693.856H268.8l153.408-396.96h51.68l163.84 396.928h-51.712l0.064 0.032z m-212.512-157.952h150.496l-78.208-195.52-72.32 195.52z m336.512 153.6c-22.176 0-39.872-5.824-51.68-15.968-11.776-10.112-17.696-24.64-17.696-40.544 0-10.144 2.944-18.816 7.36-26.08 3.936-7.904 10.08-14.464 17.728-18.816 7.392-4.384 16.192-8.704 25.056-11.616 7.392-1.408 17.76-2.88 32.512-5.76 29.472-2.912 51.616-7.264 66.4-13.056l2.976-1.44v-13.056c0-15.904-4.448-27.52-11.84-34.752-10.304-8.672-25.088-13.024-44.288-13.024-19.2 0-32.448 2.88-41.312 10.112-8.832 5.792-14.784 15.936-19.2 30.4l-29.472-2.88c2.88-13.024 7.36-23.168 14.72-30.4 7.392-8.704 17.728-15.968 30.976-20.288a153.696 153.696 0 0 1 47.264-7.232c17.696 0 32.48 1.44 44.256 5.792 10.336 4.32 19.2 8.704 23.584 14.464 4.48 5.824 8.896 13.024 10.368 23.2 1.472 5.76 1.472 17.344 1.472 31.872v137.6h-25.088V651.84l-7.392 5.792c-13.28 11.616-26.56 18.848-38.4 23.2-11.936 5.76-25.056 8.736-38.336 8.704z m75.264-111.584c-13.28 5.792-32.512 10.176-59.04 13.056-16.224 2.912-26.56 4.352-33.984 7.232-7.36 2.88-13.248 7.264-16.192 13.024a31.424 31.424 0 0 0-5.92 18.848c0 11.616 4.416 20.256 13.28 27.52 8.832 7.264 20.672 10.144 35.424 10.144 14.784 0 28.064-2.88 39.84-10.144 11.84-5.76 20.672-15.904 26.56-27.52 4.48-8.704 5.92-21.728 5.92-37.664v-20.288l-5.888 5.824v-0.032z"  /><path fill="#4092BA" d="M739.584 479.456c17.696 0 30.976 1.408 42.784 5.76 10.368 4.384 17.728 8.704 22.144 13.024 4.448 5.824 7.392 13.024 10.304 20.32 1.504 4.32 1.504 13.024 1.504 31.872v133.248h-16.192v-40.544l-14.784 11.584c-13.28 10.144-25.12 18.816-36.896 23.168-11.84 4.352-23.616 5.792-36.928 5.792-22.08 0-38.4-4.32-48.672-14.496-10.368-10.144-16.224-21.728-16.224-37.664 0-8.64 1.44-17.344 5.856-24.64 4.448-7.232 10.368-13.024 16.256-17.344 7.392-4.352 14.752-8.704 23.584-10.144 7.392-1.44 17.76-2.88 30.976-5.824 31.04-2.88 53.152-7.2 67.936-13.024l5.888-1.44v-15.936c0-17.376-4.384-30.4-13.28-37.664-10.336-10.144-26.56-14.464-47.232-14.464-19.2 0-33.92 2.88-44.288 10.144-8.832 5.76-14.72 15.904-19.2 28.96l-19.168-2.88c2.976-10.176 7.392-17.408 11.84-24.64 5.888-8.704 16.192-14.496 28.032-18.848 13.28-1.44 28.032-4.32 45.76-4.32z m-20.672 194.08c16.224 0 29.536-2.88 42.816-10.112 13.248-7.264 22.112-15.968 28.032-28.992 4.416-10.144 7.392-23.2 7.392-39.104v-26.08l-11.84 4.32a283.712 283.712 0 0 1-57.536 13.024c-16.256 2.944-28.064 4.384-33.952 7.296-7.392 2.88-14.752 8.64-17.728 14.464a40.32 40.32 0 0 0-5.888 21.728c0 11.616 4.416 21.76 14.784 30.432 4.416 10.144 16.192 13.024 33.92 13.024z m20.672-202.784c-19.2 0-35.424 2.88-48.736 7.232-14.72 4.352-25.056 11.616-32.448 21.76-7.392 8.672-13.28 21.696-16.224 36.16l35.424 4.384c4.416-14.496 10.336-26.048 17.696-31.872 8.864-5.792 20.672-8.672 38.368-8.672 19.2 0 32.48 4.32 41.312 11.552 7.392 5.76 10.368 15.968 10.368 30.4v10.176c-14.784 4.352-35.424 8.672-66.432 13.024-14.784 1.472-25.088 2.88-32.448 5.792-9.344 2.72-18.24 6.624-26.56 11.616-7.424 5.76-14.816 11.584-19.2 20.256a64.928 64.928 0 0 0-7.392 28.992c0 17.344 5.92 31.872 19.2 43.424 13.28 11.616 30.944 17.408 54.592 17.408 14.752 0 28.032-2.88 41.344-7.264 13.28-4.32 25.056-13.024 39.84-24.64v33.344h35.424v-141.952c0-15.968 0-27.52-1.504-33.312-1.472-10.144-5.888-17.376-11.776-24.64a67.2 67.2 0 0 0-25.088-15.936c-11.84-4.352-26.56-7.232-45.76-7.232z m-20.672 194.112c-14.784 0-25.088-2.88-32.448-10.144a30.72 30.72 0 0 1-11.84-24.64c0-5.76 1.472-11.584 4.448-17.344 2.944-5.824 8.864-8.704 14.784-11.616 5.856-2.88 17.664-5.76 32.448-7.232 26.56-4.352 47.2-8.704 60.48-13.024v13.024c0 15.904-1.44 27.52-5.888 36.16-5.92 10.176-13.28 18.88-25.088 24.64-10.336 7.264-23.584 10.176-36.896 10.176z"  /></svg>