<?xml version="1.0" encoding="UTF-8"?>
<svg width="32px" height="32px" viewBox="0 0 32 32" version="1.1" xmlns="http://www.w3.org/2000/svg" xmlns:xlink="http://www.w3.org/1999/xlink">
    <title>编组 23</title>
    <g id="页面-1" stroke="none" stroke-width="1" fill="none" fill-rule="evenodd">
        <g id="工作台首页-数据开发-图标组件" transform="translate(-299.000000, -301.000000)" fill="#2988CC" fill-rule="nonzero">
            <g id="编组-23备份" transform="translate(235.000000, -67.000000)">
                <g id="常量" transform="translate(64.000000, 368.000000)">
                    <g id="编组-2" transform="translate(6.000000, 10.000000)">
                        <path d="M4.41357459,12.177399 C6.83709459,12.2006163 8.69367747,10.7393142 9.11725763,8.87843487 C9.51527692,7.12984998 8.65241457,6.32740419 7.44112204,5.73563767 L5.94224193,5.01935148 C5.1269992,4.63891235 4.21183114,4.2122183 4.47109141,3.0839208 C4.71209391,2.03508087 5.72081914,1.36118962 7.03553914,1.35127934 C8.11265914,1.34316007 8.86942721,1.76857584 9.42886198,2.43623029 L10.4204636,1.48581352 C9.79396748,0.627182169 8.70939494,0.0464332835 7.33131494,0.0596352788 C5.22459494,0.0798176394 3.37284759,1.39471494 2.96022209,3.18621431 C2.56950591,4.88258982 3.66266515,5.70615561 4.63389011,6.16694043 L6.14495866,6.90103454 C7.12472052,7.39786888 7.87660324,7.78367068 7.60273676,8.98401011 C7.33982494,10.136336 6.24583039,10.8976279 4.72519039,10.8861655 C3.52135039,10.877091 2.4806463,10.2964627 1.85780172,9.41857145 L0.740713874,10.41184 C1.50981982,11.4817584 2.76621459,12.1616173 4.41357459,12.177399 Z" id="S"></path>
                        <path d="M11.3567547,12.1599233 C11.6703867,12.1628868 12.03444,12.0693173 12.3509733,11.9752097 L12.3288847,11.315262 C12.1424761,11.3816299 11.8895396,11.4474074 11.7089636,11.4459033 C11.1102116,11.440916 10.993883,11.0721312 11.1406755,10.4248365 L11.8045278,7.49751895 L13.2016158,7.50053389 L13.3637448,6.78404762 L11.9666568,6.7825965 L12.3018694,5.30444604 L11.5795654,5.30536745 L11.1398088,6.78173768 L10.3210141,6.82908053 L10.1698398,7.49399126 L10.9396638,7.49565256 L10.2801933,10.3997102 C10.0435727,11.4416976 10.2542907,12.1495062 11.3567547,12.1599233 Z M14.9302587,12.1937639 C15.5480187,12.1995261 16.1664293,11.8636781 16.6671204,11.4579035 L16.6956324,11.4581397 L16.6314448,12.0827485 L17.3347408,12.0892555 L19.0787225,4.32004975 L18.2233625,4.32243473 L17.7654578,6.35963514 L17.5975262,7.27595619 C17.2289715,6.88549553 16.8918898,6.65138824 16.2836338,6.65088527 C15.1051378,6.64991077 13.8091913,7.71517673 13.4235873,9.42099801 C13.0270286,11.1752801 13.6377147,12.1814759 14.9302587,12.1937639 Z M15.2868495,11.4562145 C14.3744655,11.4486423 14.0321422,10.68734 14.3191542,9.41589592 C14.5908298,8.21239162 15.4306441,7.39842058 16.2669961,7.40008373 C16.6946761,7.40093806 17.0492852,7.55756394 17.406145,7.95820387 L16.7817294,10.7362044 C16.2349988,11.2201099 15.7620495,11.4601583 15.2868495,11.4562145 Z" id="td"></path>
                    </g>
                </g>
            </g>
        </g>
    </g>
</svg>