<?xml version="1.0" encoding="UTF-8"?>
<svg width="32px" height="32px" viewBox="0 0 32 32" version="1.1" xmlns="http://www.w3.org/2000/svg" xmlns:xlink="http://www.w3.org/1999/xlink">
    <title>编组 23</title>
    <g id="页面-1" stroke="none" stroke-width="1" fill="none" fill-rule="evenodd">
        <g id="工作台首页-数据开发-图标组件" transform="translate(-343.000000, -71.000000)" fill-rule="nonzero">
            <g id="编组-23备份" transform="translate(235.000000, -67.000000)">
                <g id="RDS" transform="translate(108.000000, 138.000000)">
                    <g transform="translate(1.000000, 5.000000)" id="重做">
                        <g id="编组" transform="translate(2.936000, 0.305342)" fill="#2988CC">
                            <path d="M1.176,15.7426584 C2.224,15.7426584 3.04,15.4626584 3.04,14.1746584 C3.04,13.5586584 2.72,13.3266584 2.288,13.1106584 C1.744,12.8386584 1.672,12.7666584 1.672,12.6146584 C1.672,12.3666584 1.792,12.2626584 2.208,12.2626584 C2.576,12.2626584 2.936,12.3506584 3.136,12.4226584 L3.344,11.4386584 C3.072,11.3586584 2.664,11.2946584 2.32,11.2946584 C1.256,11.2946584 0.464,11.6146584 0.464,12.8306584 C0.464,13.3986584 0.76,13.6146584 1.264,13.8626584 C1.704,14.0786584 1.816,14.1746584 1.816,14.3746584 C1.816,14.6226584 1.664,14.7266584 1.296,14.7266584 C0.952,14.7266584 0.568,14.6546584 0.192,14.5186584 L0,15.5906584 C0.376,15.6866584 0.784,15.7426584 1.176,15.7426584 Z M5.048,15.7426584 C5.24,15.7426584 5.496,15.7266584 5.68,15.6946584 L5.872,14.6866584 C5.784,14.7106584 5.656,14.7266584 5.536,14.7266584 C5.264,14.7266584 5.184,14.6706584 5.184,14.4626584 L5.18491526,14.4157498 C5.19198488,14.2376149 5.2466087,13.8797018 5.568,12.2946584 L6.32,12.2946584 L6.496,11.3746584 L5.752,11.3746584 C5.816,11.0706584 5.88,10.7266584 5.96,10.3506584 L4.696,10.3506584 C4.616,10.7186584 4.552,11.0626584 4.488,11.3746584 L3.96,11.3746584 L3.776,12.2946584 L4.296,12.2946584 C3.952,14.0546584 3.864,14.6146584 3.864,14.8306584 C3.864,15.4946584 4.312,15.7426584 5.048,15.7426584 Z M7.656,15.6946584 L8.112,13.3346584 C8.336,12.6626584 8.848,12.4626584 9.4,12.4626584 L9.504,12.4626584 L9.776,11.2946584 L9.688,11.2946584 C9.168,11.2946584 8.736,11.4386584 8.336,12.1506584 L8.488,11.3746584 L7.208,11.3746584 L6.376,15.6946584 L7.656,15.6946584 Z M11.296,15.7746584 C11.824,15.7746584 12.472,15.5986584 12.712,15.4626584 L12.912,14.3746584 C12.656,14.5346584 12.096,14.7266584 11.552,14.7266584 C10.992,14.7266584 10.76,14.5346584 10.728,14.1026584 C12.296,14.0226584 13.472,13.5586584 13.472,12.3826584 C13.472,11.6786584 12.952,11.2946584 12.08,11.2946584 C10.432,11.2946584 9.512,12.6866584 9.512,14.1586584 C9.512,15.3186584 10.2,15.7746584 11.296,15.7746584 Z M10.832,13.2626584 C11.024,12.6786584 11.448,12.2226584 12.016,12.2226584 C12.232,12.2226584 12.376,12.3106584 12.376,12.5026584 C12.376,12.8946584 11.848,13.1906584 10.832,13.2626584 Z M14.888,15.7746584 C15.728,15.7746584 16.048,15.3426584 16.28,14.8146584 L16.328,14.8146584 C16.296,14.9426584 16.288,15.0306584 16.288,15.1106584 C16.288,15.4866584 16.448,15.7426584 17.016,15.7426584 C17.32,15.7426584 17.512,15.7026584 17.688,15.6546584 L17.88,14.7426584 C17.776,14.7746584 17.72,14.7826584 17.616,14.7826584 C17.464,14.7826584 17.408,14.7346584 17.408,14.5586584 C17.408,14.3186584 17.5324444,13.6875473 17.6817778,13.023251 L17.773568,12.6235544 C17.82016,12.4245784 17.8672,12.2290584 17.912,12.0466584 L17.848,11.9746584 C17.512,11.5986584 16.912,11.2946584 16.144,11.2946584 C14.392,11.2946584 13.6,12.8306584 13.6,14.3026584 C13.6,15.3106584 14.064,15.7746584 14.888,15.7746584 Z M15.304,14.7826584 C15,14.7826584 14.888,14.5346584 14.888,14.1106584 C14.888,13.2306584 15.36,12.2786584 16.08,12.2786584 C16.344,12.2786584 16.576,12.4226584 16.616,12.5586584 C16.616,13.1986584 16.008,14.7826584 15.304,14.7826584 Z M19.512,15.6946584 L20.048,12.9106584 C20.176,12.5586584 20.432,12.2786584 20.936,12.2786584 C21.224,12.2786584 21.424,12.3826584 21.424,12.7186584 C21.424,12.8066584 21.4,12.9826584 21.376,13.1026584 L20.856,15.6946584 L22.136,15.6946584 L22.68,12.9426584 L22.68,12.9266584 C22.808,12.5666584 23.032,12.2786584 23.576,12.2786584 C23.864,12.2786584 24.064,12.3826584 24.064,12.7186584 C24.064,12.8066584 24.04,12.9826584 24.016,13.1026584 L23.496,15.6946584 L24.776,15.6946584 L25.32,12.9426584 C25.344,12.8066584 25.376,12.5986584 25.376,12.4546584 C25.376,11.7186584 24.944,11.2946584 24.112,11.2946584 C23.496,11.2946584 22.976,11.5506584 22.704,11.9506584 C22.608,11.4946584 22.304,11.2946584 21.632,11.2946584 C21.04,11.2946584 20.536,11.5426584 20.24,11.9346584 L20.344,11.3746584 L19.064,11.3746584 L18.232,15.6946584 L19.512,15.6946584 Z" id="stream"></path>
                            <g id="网络信号" transform="translate(8.283340, 7.500000) rotate(46.000000) translate(-8.283340, -7.500000) translate(1.783340, 4.000000)">
                                <path d="M3.04091401,5.84957407 L3.64892837,6.47133897 C4.32567133,5.87967028 5.20180362,5.52001369 6.16000957,5.52001369 C7.11822035,5.52001369 7.9947653,5.87967028 8.67153593,6.47177931 L9.2795503,5.85001442 C8.44552984,5.09935137 7.35584743,4.64001816 6.16001198,4.64001816 C4.96461807,4.64001816 3.87449291,5.09935618 3.04091401,5.84958129 L3.04091401,5.84957407 Z M1.52024646,4.29454523 L2.12826082,4.91672761 C3.19730841,3.9280248 4.60883074,3.32001044 6.16000957,3.32001044 C7.71118841,3.32001044 9.12270833,3.9280248 10.1917824,4.91672761 L10.7997968,4.29496272 C9.57430423,3.14726555 7.94837516,2.4400065 6.16001198,2.4400065 C4.37164881,2.4400065 2.74571973,3.14726315 1.52024646,4.29454162 L1.52024646,4.29454523 Z M6.16000717,0.240009263 C3.77868315,0.240009263 1.61564235,1.19434837 -2.27373675e-13,2.73993748 L0.608433052,3.36170238 C2.06764491,1.9755203 4.01586749,1.12001321 6.16000717,1.12001321 C8.30414685,1.12001321 10.2523694,1.97552872 11.7120024,3.36212347 L12.3200167,2.73994109 C10.7043744,1.1943568 8.5413336,0.240009263 6.16000957,0.240009263 L6.16000717,0.240009263 Z" id="形状"></path>
                            </g>
                        </g>
                        <path d="M0,20.6367449 C0,20.0742214 0.0937114673,19.5413015 0.281134402,19.037995 C0.468557337,18.5346852 0.728318627,18.0887372 1.06041924,17.7001521 C1.39251984,17.3115671 1.78216226,16.9951478 2.22934649,16.7508944 C2.67653071,16.5066409 3.15659679,16.3549073 3.66954377,16.2956947 C3.73530624,16.2734899 3.80435708,16.2623874 3.87669544,16.2623874 L5.44512947,16.2623874 L5.44512947,15.374193 C5.45170572,15.226161 5.50431566,15.1151367 5.60295931,15.0411201 C5.70160296,14.9671039 5.8298397,14.9930096 5.98766954,15.1188371 C6.03370328,15.1558452 6.12248285,15.2317122 6.2540074,15.3464369 C6.38553194,15.4611617 6.531854,15.5906904 6.69297164,15.735022 C6.85408928,15.8793536 7.0168513,16.025536 7.18125771,16.173568 C7.34566411,16.3216 7.48705302,16.4511288 7.6054254,16.5621531 C7.71064561,16.6583742 7.8027127,16.7545948 7.88162762,16.8508162 C7.96054254,16.9470373 8,17.0395576 8,17.128377 C8,17.2319996 7.96547472,17.3189691 7.89642417,17.3892841 C7.82737361,17.4595995 7.74352651,17.5391669 7.64488286,17.6279864 L7.15166461,18.0498787 C6.98068261,18.1905098 6.81792058,18.323739 6.66337855,18.4495662 C6.50883651,18.5753934 6.37237978,18.684568 6.2540074,18.7770879 C6.13563502,18.8696081 6.05014353,18.9306711 5.99753391,18.960278 C5.89889026,19.0268926 5.81504316,19.0694515 5.7459926,19.0879559 C5.67694205,19.10646 5.62104366,19.1046096 5.5782984,19.0824047 C5.53555285,19.0601998 5.50267157,19.0231918 5.47965475,18.9713804 C5.45663793,18.919569 5.44512947,18.8640569 5.44512947,18.804844 L5.44512947,17.9166495 L3.87669544,17.9166495 L3.82737361,17.9166495 C3.50513737,17.9536576 3.20591862,18.0480279 2.9297164,18.1997615 C2.65351418,18.3514951 2.41183724,18.5494881 2.20468557,18.7937415 C1.99753391,19.037995 1.83477189,19.3155557 1.71639951,19.6264238 C1.59802713,19.9372918 1.53884094,20.2703647 1.53884094,20.6256425 C1.53884094,21.0031251 1.6046034,21.3565521 1.73612824,21.6859246 C1.86765278,22.015297 2.04850012,22.3021095 2.27866831,22.5463629 C2.50883651,22.7906164 2.77846312,22.9849089 3.08754624,23.1292405 C3.39662935,23.2735721 3.72544216,23.3457379 4.07398274,23.3457379 L5.60295931,23.3346355 C5.70817952,23.3346355 5.81504316,23.3568403 5.92355117,23.4012501 C6.03205919,23.4456598 6.12741504,23.5048727 6.20961776,23.5788889 C6.29182077,23.6529052 6.35922761,23.7398742 6.41183724,23.839796 C6.46444715,23.9397179 6.49075216,24.0488915 6.49075216,24.1673177 C6.49075216,24.278342 6.46444715,24.3856659 6.41183724,24.4892882 C6.35922732,24.5929109 6.28853268,24.68173 6.19975339,24.7557465 C6.11097411,24.8297628 6.01233046,24.8889757 5.90382244,24.9333854 C5.79531443,24.9777951 5.68845079,25 5.58323058,25 L3.87669544,25 L3.78791615,25 C3.76161115,25 3.73201805,24.9962992 3.69913687,24.9888976 C3.17961332,24.9370862 2.69461891,24.7872031 2.24414303,24.5392491 C1.79367004,24.2912952 1.40238421,23.9730252 1.0702836,23.5844402 C0.738182992,23.1958551 0.47677732,22.7499071 0.286066584,22.2465973 C0.0953558493,21.7432875 0,21.2066693 0,20.6367449 L0,20.6367449 Z" id="路径" fill="#FF9A36"></path>
                    </g>
                </g>
            </g>
        </g>
    </g>
</svg>