<?xml version="1.0" standalone="no"?><!DOCTYPE svg PUBLIC "-//W3C//DTD SVG 1.1//EN" "http://www.w3.org/Graphics/SVG/1.1/DTD/svg11.dtd"><svg class="icon" width="200px" height="200.00px" viewBox="0 0 1024 1024" version="1.1" xmlns="http://www.w3.org/2000/svg"><path fill="#4092BA" d="M714.656 288c29.44 0 53.344 23.872 53.344 53.344v240c0 29.44-23.872 53.312-53.344 53.312h-80v80c0 29.44-23.872 53.344-53.312 53.344h-240C311.904 768 288 744.128 288 714.656v-240c0-29.44 23.872-53.312 53.344-53.312h80v-80c0-29.44 23.872-53.344 53.312-53.344h240z m-133.312 133.344h-160v160c0 27.904 21.504 51.104 49.312 53.184l4 0.128h160v-160c0-27.904-21.504-51.104-49.312-53.184l-4-0.128z"  /></svg>