<?xml version="1.0" standalone="no"?><!DOCTYPE svg PUBLIC "-//W3C//DTD SVG 1.1//EN" "http://www.w3.org/Graphics/SVG/1.1/DTD/svg11.dtd"><svg class="icon" width="200px" height="200.00px" viewBox="0 0 1024 1024" version="1.1" xmlns="http://www.w3.org/2000/svg"><path fill="#4092BA" d="M804.32 732.8H257.6a52.48 52.48 0 0 1-52.384-52.352V306.848a15.968 15.968 0 0 1 31.872 0v373.6c0 11.264 9.216 20.48 20.48 20.48h546.784a15.968 15.968 0 0 1 0 31.904z"  /><path fill="#4092BA" d="M282.56 637.184a15.936 15.936 0 0 1-13.952-23.68l79.136-143.36a24.96 24.96 0 0 1 36.032-8.608l38.848 26.816 57.216-133.312c5.696-13.344 18.688-21.44 32.832-20.8 14.304 0.64 26.4 10.016 30.88 23.904l41.888 130.08 79.2-49.248a24.704 24.704 0 0 1 20-2.752 25.152 25.152 0 0 1 15.584 13.28l56.864 115.104a15.936 15.936 0 1 1-28.608 14.144l-53.6-108.48-80.256 49.856a24.576 24.576 0 0 1-21.632 2.176 25.088 25.088 0 0 1-15.264-16l-44.544-138.336c-0.32-0.832-0.768-1.792-2.08-1.856-1.248-0.064-1.728 0.768-2.048 1.6l-60.512 140.928a25.024 25.024 0 0 1-16.096 14.304 24.672 24.672 0 0 1-20.96-3.456l-39.456-27.2-75.52 136.64a15.968 15.968 0 0 1-13.92 8.256z m390.144-172.576s0 0.32 0.32 0.32l-0.32-0.32z"  /></svg>