<?xml version="1.0" encoding="UTF-8"?>
<svg width="32px" height="32px" viewBox="0 0 32 32" version="1.1" xmlns="http://www.w3.org/2000/svg" xmlns:xlink="http://www.w3.org/1999/xlink">
    <title>编组 23</title>
    <g id="页面-1" stroke="none" stroke-width="1" fill="none" fill-rule="evenodd">
        <g id="工作台首页-数据开发-图标组件" transform="translate(-255.000000, -301.000000)" fill="#2988CC" fill-rule="nonzero">
            <g id="编组-23备份" transform="translate(235.000000, -67.000000)">
                <g id="参数" transform="translate(20.000000, 368.000000)">
                    <g id="方差选择" transform="translate(7.000000, 6.000000)">
                        <path d="M21.1179621,20.7900242 L0.10312512,20.7900242 L0.10312512,0.36918793 L1.16737636,0.36918793 L1.16737636,19.725773 L21.1179621,19.725773 L21.1179621,20.7900242 Z M1.45406419,19.5710853 L0.408375475,19.3751475 C1.10137628,15.6791432 2.00062733,11.4200758 3.89194203,7.64157139 C4.07137974,7.28269597 4.61794287,6.19369471 5.65538158,6.19369471 L5.6677566,6.19369471 C6.89288302,6.20400722 7.34457105,7.63950889 7.49307122,8.10975944 C8.05613437,9.89794902 9.02963551,12.4740145 10.9560127,14.1735165 C12.9834526,15.9617061 15.936956,16.794957 20.2496486,16.794957 L20.3073986,16.794957 L20.3094611,17.8592083 L20.2393361,17.8592083 C17.3353327,17.8592083 13.1732028,17.5498329 10.2526994,14.9717049 C8.12625946,13.0968902 7.07850824,10.341387 6.47625754,8.42944731 C6.30919484,7.89732169 6.03075702,7.26000845 5.65744408,7.25794595 L5.65538158,7.25794595 C5.40581879,7.25794595 5.12531846,7.55494629 4.84275564,8.11800945 C3.01331601,11.7727637 2.13262748,15.9452061 1.45406419,19.5710853 L1.45406419,19.5710853 Z M20.9612119,19.4638351 C14.3756417,19.4638351 9.31632334,17.6055205 5.92144439,13.9363287 C0.779625907,8.37994725 1.34062656,0.763125888 1.36537659,0.439313011 L2.42756532,0.525938112 C2.42137782,0.600188198 1.88512719,8.01488433 6.70932031,13.2185779 C9.89382401,16.6567694 14.6891421,18.3975214 20.9612119,18.3975214 L21.1158996,18.3975214 L21.1200246,19.4617726 C21.0663995,19.4638351 21.0127745,19.4638351 20.9612119,19.4638351 Z" id="形状"></path>
                    </g>
                </g>
            </g>
        </g>
    </g>
</svg>