<?xml version="1.0" standalone="no"?><!DOCTYPE svg PUBLIC "-//W3C//DTD SVG 1.1//EN" "http://www.w3.org/Graphics/SVG/1.1/DTD/svg11.dtd"><svg class="icon" width="200px" height="200.00px" viewBox="0 0 1024 1024" version="1.1" xmlns="http://www.w3.org/2000/svg"><path fill="#4092BA" d="M505.6 819.2c-155.168 0-281.6-126.432-281.6-281.6C224 382.176 350.432 256 505.6 256s281.6 126.432 281.6 281.6-126.176 281.6-281.6 281.6z m0-539.616c-142.336 0-258.016 115.68-258.016 258.016s115.68 258.016 258.016 258.016 258.016-115.68 258.016-258.016-115.68-258.016-258.016-258.016z m63.36 410.432l-6.976-25.216 45.472 1.056c8.864 0 13.312-5.216 13.312-15.712V408.64h-230.272v282.368h-25.216v-306.88h280.672v271.584c0 22.88-10.176 34.304-30.464 34.304H568.96v-0.032zM416 448.896h179.52v23.424H416v-23.424z m19.584 61.248h140.32v112.704h-140.32v-112.704z m115.872 90.24v-67.52H460.16v67.52h91.328z"  /></svg>